<mxfile host="app.diagrams.net" modified="2023-09-23T05:56:47.607Z" agent="Mozilla/5.0 (Windows NT 10.0; Win64; x64) AppleWebKit/537.36 (KHTML, like Gecko) Chrome/116.0.0.0 Safari/537.36" etag="Gn6Dl9LwL31UE3W2v2n3" version="21.3.7" type="google">
  <diagram id="C5RBs43oDa-KdzZeNtuy" name="Page-1">
    <mxGraphModel grid="1" page="1" gridSize="10" guides="1" tooltips="1" connect="1" arrows="1" fold="1" pageScale="1" pageWidth="827" pageHeight="1169" math="0" shadow="0">
      <root>
        <mxCell id="WIyWlLk6GJQsqaUBKTNV-0" />
        <mxCell id="WIyWlLk6GJQsqaUBKTNV-1" parent="WIyWlLk6GJQsqaUBKTNV-0" />
        <mxCell id="5OiQwkXpwTmZOVAmIXW2-195" style="edgeStyle=orthogonalEdgeStyle;rounded=0;orthogonalLoop=1;jettySize=auto;html=1;exitX=0.99;exitY=0.049;exitDx=0;exitDy=0;entryX=0;entryY=0.5;entryDx=0;entryDy=0;exitPerimeter=0;" edge="1" parent="WIyWlLk6GJQsqaUBKTNV-1" source="pLFZM72usyoBuc8QHLye-0" target="5OiQwkXpwTmZOVAmIXW2-194">
          <mxGeometry relative="1" as="geometry">
            <Array as="points">
              <mxPoint x="-480" y="93" />
              <mxPoint x="-480" y="45" />
            </Array>
          </mxGeometry>
        </mxCell>
        <mxCell id="h9yrDQvfIrGnZo1wYAG7-46" style="edgeStyle=orthogonalEdgeStyle;rounded=0;orthogonalLoop=1;jettySize=auto;html=1;entryX=1;entryY=0.5;entryDx=0;entryDy=0;" edge="1" parent="WIyWlLk6GJQsqaUBKTNV-1" source="pLFZM72usyoBuc8QHLye-0" target="h9yrDQvfIrGnZo1wYAG7-5">
          <mxGeometry relative="1" as="geometry">
            <Array as="points">
              <mxPoint x="-555" y="100" />
              <mxPoint x="-555" y="-130" />
            </Array>
          </mxGeometry>
        </mxCell>
        <mxCell id="h9yrDQvfIrGnZo1wYAG7-47" style="edgeStyle=orthogonalEdgeStyle;rounded=0;orthogonalLoop=1;jettySize=auto;html=1;entryX=1;entryY=0.5;entryDx=0;entryDy=0;" edge="1" parent="WIyWlLk6GJQsqaUBKTNV-1" source="pLFZM72usyoBuc8QHLye-0" target="h9yrDQvfIrGnZo1wYAG7-45">
          <mxGeometry relative="1" as="geometry">
            <Array as="points">
              <mxPoint x="-575" y="110" />
              <mxPoint x="-575" y="-15" />
            </Array>
          </mxGeometry>
        </mxCell>
        <mxCell id="h9yrDQvfIrGnZo1wYAG7-59" style="edgeStyle=orthogonalEdgeStyle;rounded=0;orthogonalLoop=1;jettySize=auto;html=1;entryX=1;entryY=0.5;entryDx=0;entryDy=0;" edge="1" parent="WIyWlLk6GJQsqaUBKTNV-1" source="pLFZM72usyoBuc8QHLye-0" target="h9yrDQvfIrGnZo1wYAG7-57">
          <mxGeometry relative="1" as="geometry" />
        </mxCell>
        <mxCell id="h9yrDQvfIrGnZo1wYAG7-110" style="edgeStyle=orthogonalEdgeStyle;rounded=0;orthogonalLoop=1;jettySize=auto;html=1;entryX=0.5;entryY=0;entryDx=0;entryDy=0;" edge="1" parent="WIyWlLk6GJQsqaUBKTNV-1">
          <mxGeometry relative="1" as="geometry">
            <Array as="points">
              <mxPoint x="-500" y="660" />
              <mxPoint x="-399" y="660" />
            </Array>
            <mxPoint x="-500" y="545" as="sourcePoint" />
            <mxPoint x="-399" y="850" as="targetPoint" />
          </mxGeometry>
        </mxCell>
        <mxCell id="pLFZM72usyoBuc8QHLye-0" value="User" style="swimlane;fontStyle=0;childLayout=stackLayout;horizontal=1;startSize=30;horizontalStack=0;resizeParent=1;resizeParentMax=0;resizeLast=0;collapsible=1;marginBottom=0;metaEdit=0;treeFolding=0;treeMoving=0;enumerate=0;comic=0;rounded=0;fillColor=#a20025;fontColor=#ffffff;strokeColor=#6F0000;" vertex="1" parent="WIyWlLk6GJQsqaUBKTNV-1">
          <mxGeometry x="-570" y="75" width="140" height="360" as="geometry">
            <mxRectangle x="80" y="190" width="70" height="30" as="alternateBounds" />
          </mxGeometry>
        </mxCell>
        <mxCell id="pLFZM72usyoBuc8QHLye-1" value="ID: Integer" style="text;strokeColor=none;fillColor=none;align=left;verticalAlign=middle;spacingLeft=4;spacingRight=4;overflow=hidden;points=[[0,0.5],[1,0.5]];portConstraint=eastwest;rotatable=0;rounded=0;" vertex="1" parent="pLFZM72usyoBuc8QHLye-0">
          <mxGeometry y="30" width="140" height="30" as="geometry" />
        </mxCell>
        <mxCell id="pLFZM72usyoBuc8QHLye-2" value="Name: String" style="text;strokeColor=none;fillColor=none;align=left;verticalAlign=middle;spacingLeft=4;spacingRight=4;overflow=hidden;points=[[0,0.5],[1,0.5]];portConstraint=eastwest;rotatable=0;rounded=0;" vertex="1" parent="pLFZM72usyoBuc8QHLye-0">
          <mxGeometry y="60" width="140" height="30" as="geometry" />
        </mxCell>
        <mxCell id="oavhkNN7TmO2YfZ4ztie-0" value="NickName: String" style="text;strokeColor=none;fillColor=none;align=left;verticalAlign=middle;spacingLeft=4;spacingRight=4;overflow=hidden;points=[[0,0.5],[1,0.5]];portConstraint=eastwest;rotatable=0;rounded=0;" vertex="1" parent="pLFZM72usyoBuc8QHLye-0">
          <mxGeometry y="90" width="140" height="30" as="geometry" />
        </mxCell>
        <mxCell id="pLFZM72usyoBuc8QHLye-3" value="Email: String    " style="text;strokeColor=none;fillColor=none;align=left;verticalAlign=middle;spacingLeft=4;spacingRight=4;overflow=hidden;points=[[0,0.5],[1,0.5]];portConstraint=eastwest;rotatable=0;rounded=0;" vertex="1" parent="pLFZM72usyoBuc8QHLye-0">
          <mxGeometry y="120" width="140" height="30" as="geometry" />
        </mxCell>
        <mxCell id="pLFZM72usyoBuc8QHLye-5" value="Country/Location: String" style="text;strokeColor=none;fillColor=none;align=left;verticalAlign=middle;spacingLeft=4;spacingRight=4;overflow=hidden;points=[[0,0.5],[1,0.5]];portConstraint=eastwest;rotatable=0;rounded=0;" vertex="1" parent="pLFZM72usyoBuc8QHLye-0">
          <mxGeometry y="150" width="140" height="30" as="geometry" />
        </mxCell>
        <mxCell id="pLFZM72usyoBuc8QHLye-6" value="PhoneNumber :String " style="text;strokeColor=none;fillColor=none;align=left;verticalAlign=middle;spacingLeft=4;spacingRight=4;overflow=hidden;points=[[0,0.5],[1,0.5]];portConstraint=eastwest;rotatable=0;rounded=0;" vertex="1" parent="pLFZM72usyoBuc8QHLye-0">
          <mxGeometry y="180" width="140" height="30" as="geometry" />
        </mxCell>
        <mxCell id="5OiQwkXpwTmZOVAmIXW2-233" value="BMI: Integer" style="text;strokeColor=none;fillColor=none;align=left;verticalAlign=middle;spacingLeft=4;spacingRight=4;overflow=hidden;points=[[0,0.5],[1,0.5]];portConstraint=eastwest;rotatable=0;rounded=0;" vertex="1" parent="pLFZM72usyoBuc8QHLye-0">
          <mxGeometry y="210" width="140" height="30" as="geometry" />
        </mxCell>
        <mxCell id="5OiQwkXpwTmZOVAmIXW2-232" value="Weight: Integer" style="text;strokeColor=none;fillColor=none;align=left;verticalAlign=middle;spacingLeft=4;spacingRight=4;overflow=hidden;points=[[0,0.5],[1,0.5]];portConstraint=eastwest;rotatable=0;rounded=0;" vertex="1" parent="pLFZM72usyoBuc8QHLye-0">
          <mxGeometry y="240" width="140" height="30" as="geometry" />
        </mxCell>
        <mxCell id="5OiQwkXpwTmZOVAmIXW2-231" value="Height: Integer" style="text;strokeColor=none;fillColor=none;align=left;verticalAlign=middle;spacingLeft=4;spacingRight=4;overflow=hidden;points=[[0,0.5],[1,0.5]];portConstraint=eastwest;rotatable=0;rounded=0;" vertex="1" parent="pLFZM72usyoBuc8QHLye-0">
          <mxGeometry y="270" width="140" height="30" as="geometry" />
        </mxCell>
        <mxCell id="5OiQwkXpwTmZOVAmIXW2-262" value="Points: Integer" style="text;strokeColor=none;fillColor=none;align=left;verticalAlign=middle;spacingLeft=4;spacingRight=4;overflow=hidden;points=[[0,0.5],[1,0.5]];portConstraint=eastwest;rotatable=0;rounded=0;" vertex="1" parent="pLFZM72usyoBuc8QHLye-0">
          <mxGeometry y="300" width="140" height="30" as="geometry" />
        </mxCell>
        <mxCell id="5OiQwkXpwTmZOVAmIXW2-263" value="Level: Integer" style="text;strokeColor=none;fillColor=none;align=left;verticalAlign=middle;spacingLeft=4;spacingRight=4;overflow=hidden;points=[[0,0.5],[1,0.5]];portConstraint=eastwest;rotatable=0;rounded=0;" vertex="1" parent="pLFZM72usyoBuc8QHLye-0">
          <mxGeometry y="330" width="140" height="30" as="geometry" />
        </mxCell>
        <mxCell id="5OiQwkXpwTmZOVAmIXW2-7" style="edgeStyle=orthogonalEdgeStyle;rounded=0;orthogonalLoop=1;jettySize=auto;html=1;entryX=0.5;entryY=0;entryDx=0;entryDy=0;exitX=0.5;exitY=1;exitDx=0;exitDy=0;" edge="1" parent="WIyWlLk6GJQsqaUBKTNV-1" source="pLFZM72usyoBuc8QHLye-66" target="5OiQwkXpwTmZOVAmIXW2-8">
          <mxGeometry relative="1" as="geometry">
            <mxPoint x="2561" y="580" as="targetPoint" />
          </mxGeometry>
        </mxCell>
        <mxCell id="pLFZM72usyoBuc8QHLye-22" value="Macros" style="swimlane;fontStyle=0;childLayout=stackLayout;horizontal=1;startSize=30;horizontalStack=0;resizeParent=1;resizeParentMax=0;resizeLast=0;collapsible=1;marginBottom=0;metaEdit=0;treeFolding=0;treeMoving=0;enumerate=0;comic=0;rounded=0;fillColor=#e3c800;fontColor=#000000;strokeColor=#B09500;" vertex="1" parent="WIyWlLk6GJQsqaUBKTNV-1">
          <mxGeometry x="2020" y="670" width="140" height="390" as="geometry">
            <mxRectangle x="80" y="590" width="70" height="30" as="alternateBounds" />
          </mxGeometry>
        </mxCell>
        <mxCell id="pLFZM72usyoBuc8QHLye-25" value="TCarbs: Double" style="text;strokeColor=none;fillColor=none;align=left;verticalAlign=middle;spacingLeft=4;spacingRight=4;overflow=hidden;points=[[0,0.5],[1,0.5]];portConstraint=eastwest;rotatable=0;rounded=0;" vertex="1" parent="pLFZM72usyoBuc8QHLye-22">
          <mxGeometry y="30" width="140" height="30" as="geometry" />
        </mxCell>
        <mxCell id="5OiQwkXpwTmZOVAmIXW2-2" value="TCDietaryFiber: Double" style="text;strokeColor=none;fillColor=none;align=left;verticalAlign=middle;spacingLeft=4;spacingRight=4;overflow=hidden;points=[[0,0.5],[1,0.5]];portConstraint=eastwest;rotatable=0;rounded=0;" vertex="1" parent="pLFZM72usyoBuc8QHLye-22">
          <mxGeometry y="60" width="140" height="30" as="geometry" />
        </mxCell>
        <mxCell id="5OiQwkXpwTmZOVAmIXW2-3" value="TCTSugar: Double" style="text;strokeColor=none;fillColor=none;align=left;verticalAlign=middle;spacingLeft=4;spacingRight=4;overflow=hidden;points=[[0,0.5],[1,0.5]];portConstraint=eastwest;rotatable=0;rounded=0;" vertex="1" parent="pLFZM72usyoBuc8QHLye-22">
          <mxGeometry y="90" width="140" height="30" as="geometry" />
        </mxCell>
        <mxCell id="5OiQwkXpwTmZOVAmIXW2-4" value="TCTSAdded: Double" style="text;strokeColor=none;fillColor=none;align=left;verticalAlign=middle;spacingLeft=4;spacingRight=4;overflow=hidden;points=[[0,0.5],[1,0.5]];portConstraint=eastwest;rotatable=0;rounded=0;" vertex="1" parent="pLFZM72usyoBuc8QHLye-22">
          <mxGeometry y="120" width="140" height="30" as="geometry" />
        </mxCell>
        <mxCell id="pLFZM72usyoBuc8QHLye-26" value="Protein: Double" style="text;strokeColor=none;fillColor=none;align=left;verticalAlign=middle;spacingLeft=4;spacingRight=4;overflow=hidden;points=[[0,0.5],[1,0.5]];portConstraint=eastwest;rotatable=0;rounded=0;" vertex="1" parent="pLFZM72usyoBuc8QHLye-22">
          <mxGeometry y="150" width="140" height="30" as="geometry" />
        </mxCell>
        <mxCell id="pLFZM72usyoBuc8QHLye-90" value="Id: Integer" style="text;strokeColor=none;fillColor=none;align=left;verticalAlign=middle;spacingLeft=4;spacingRight=4;overflow=hidden;points=[[0,0.5],[1,0.5]];portConstraint=eastwest;rotatable=0;rounded=0;" vertex="1" parent="pLFZM72usyoBuc8QHLye-22">
          <mxGeometry y="180" width="140" height="30" as="geometry" />
        </mxCell>
        <mxCell id="pLFZM72usyoBuc8QHLye-23" value="Calories: Double" style="text;strokeColor=none;fillColor=none;align=left;verticalAlign=middle;spacingLeft=4;spacingRight=4;overflow=hidden;points=[[0,0.5],[1,0.5]];portConstraint=eastwest;rotatable=0;rounded=0;" vertex="1" parent="pLFZM72usyoBuc8QHLye-22">
          <mxGeometry y="210" width="140" height="30" as="geometry" />
        </mxCell>
        <mxCell id="pLFZM72usyoBuc8QHLye-24" value="TFat: Double" style="text;strokeColor=none;fillColor=none;align=left;verticalAlign=middle;spacingLeft=4;spacingRight=4;overflow=hidden;points=[[0,0.5],[1,0.5]];portConstraint=eastwest;rotatable=0;rounded=0;" vertex="1" parent="pLFZM72usyoBuc8QHLye-22">
          <mxGeometry y="240" width="140" height="30" as="geometry" />
        </mxCell>
        <mxCell id="5OiQwkXpwTmZOVAmIXW2-0" value="SatFat: Double" style="text;strokeColor=none;fillColor=none;align=left;verticalAlign=middle;spacingLeft=4;spacingRight=4;overflow=hidden;points=[[0,0.5],[1,0.5]];portConstraint=eastwest;rotatable=0;rounded=0;" vertex="1" parent="pLFZM72usyoBuc8QHLye-22">
          <mxGeometry y="270" width="140" height="30" as="geometry" />
        </mxCell>
        <mxCell id="5OiQwkXpwTmZOVAmIXW2-1" value="TransFat" style="text;strokeColor=none;fillColor=none;align=left;verticalAlign=middle;spacingLeft=4;spacingRight=4;overflow=hidden;points=[[0,0.5],[1,0.5]];portConstraint=eastwest;rotatable=0;rounded=0;" vertex="1" parent="pLFZM72usyoBuc8QHLye-22">
          <mxGeometry y="300" width="140" height="30" as="geometry" />
        </mxCell>
        <mxCell id="pLFZM72usyoBuc8QHLye-92" value="Cholesterol: Double" style="text;strokeColor=none;fillColor=none;align=left;verticalAlign=middle;spacingLeft=4;spacingRight=4;overflow=hidden;points=[[0,0.5],[1,0.5]];portConstraint=eastwest;rotatable=0;rounded=0;" vertex="1" parent="pLFZM72usyoBuc8QHLye-22">
          <mxGeometry y="330" width="140" height="30" as="geometry" />
        </mxCell>
        <mxCell id="pLFZM72usyoBuc8QHLye-93" value="Sodium: Double" style="text;strokeColor=none;fillColor=none;align=left;verticalAlign=middle;spacingLeft=4;spacingRight=4;overflow=hidden;points=[[0,0.5],[1,0.5]];portConstraint=eastwest;rotatable=0;rounded=0;" vertex="1" parent="pLFZM72usyoBuc8QHLye-22">
          <mxGeometry y="360" width="140" height="30" as="geometry" />
        </mxCell>
        <mxCell id="5OiQwkXpwTmZOVAmIXW2-40" style="edgeStyle=orthogonalEdgeStyle;rounded=0;orthogonalLoop=1;jettySize=auto;html=1;entryX=0;entryY=0.5;entryDx=0;entryDy=0;" edge="1" parent="WIyWlLk6GJQsqaUBKTNV-1" source="pLFZM72usyoBuc8QHLye-36" target="pLFZM72usyoBuc8QHLye-49">
          <mxGeometry relative="1" as="geometry">
            <mxPoint x="710" y="460" as="targetPoint" />
          </mxGeometry>
        </mxCell>
        <mxCell id="pLFZM72usyoBuc8QHLye-36" value="DietPlan" style="swimlane;fontStyle=0;childLayout=stackLayout;horizontal=1;startSize=30;horizontalStack=0;resizeParent=1;resizeParentMax=0;resizeLast=0;collapsible=1;marginBottom=0;metaEdit=0;treeFolding=0;treeMoving=0;enumerate=0;comic=0;rounded=0;fillColor=#e3c800;fontColor=#000000;strokeColor=#B09500;" vertex="1" parent="WIyWlLk6GJQsqaUBKTNV-1">
          <mxGeometry x="760" y="435" width="140" height="180" as="geometry">
            <mxRectangle x="80" y="190" width="70" height="30" as="alternateBounds" />
          </mxGeometry>
        </mxCell>
        <mxCell id="pLFZM72usyoBuc8QHLye-37" value="ID: Integer" style="text;strokeColor=none;fillColor=none;align=left;verticalAlign=middle;spacingLeft=4;spacingRight=4;overflow=hidden;points=[[0,0.5],[1,0.5]];portConstraint=eastwest;rotatable=0;rounded=0;" vertex="1" parent="pLFZM72usyoBuc8QHLye-36">
          <mxGeometry y="30" width="140" height="30" as="geometry" />
        </mxCell>
        <mxCell id="pLFZM72usyoBuc8QHLye-38" value="Type: String (Enum?)" style="text;strokeColor=none;fillColor=none;align=left;verticalAlign=middle;spacingLeft=4;spacingRight=4;overflow=hidden;points=[[0,0.5],[1,0.5]];portConstraint=eastwest;rotatable=0;rounded=0;" vertex="1" parent="pLFZM72usyoBuc8QHLye-36">
          <mxGeometry y="60" width="140" height="30" as="geometry" />
        </mxCell>
        <mxCell id="5OiQwkXpwTmZOVAmIXW2-61" value="StardDate: Date" style="text;strokeColor=none;fillColor=none;align=left;verticalAlign=middle;spacingLeft=4;spacingRight=4;overflow=hidden;points=[[0,0.5],[1,0.5]];portConstraint=eastwest;rotatable=0;rounded=0;" vertex="1" parent="pLFZM72usyoBuc8QHLye-36">
          <mxGeometry y="90" width="140" height="30" as="geometry" />
        </mxCell>
        <mxCell id="5OiQwkXpwTmZOVAmIXW2-62" value="EndDate: Date" style="text;strokeColor=none;fillColor=none;align=left;verticalAlign=middle;spacingLeft=4;spacingRight=4;overflow=hidden;points=[[0,0.5],[1,0.5]];portConstraint=eastwest;rotatable=0;rounded=0;" vertex="1" parent="pLFZM72usyoBuc8QHLye-36">
          <mxGeometry y="120" width="140" height="30" as="geometry" />
        </mxCell>
        <mxCell id="5OiQwkXpwTmZOVAmIXW2-63" value="AvgCalPD: Double" style="text;strokeColor=none;fillColor=none;align=left;verticalAlign=middle;spacingLeft=4;spacingRight=4;overflow=hidden;points=[[0,0.5],[1,0.5]];portConstraint=eastwest;rotatable=0;rounded=0;" vertex="1" parent="pLFZM72usyoBuc8QHLye-36">
          <mxGeometry y="150" width="140" height="30" as="geometry" />
        </mxCell>
        <mxCell id="5OiQwkXpwTmZOVAmIXW2-328" style="edgeStyle=orthogonalEdgeStyle;rounded=0;orthogonalLoop=1;jettySize=auto;html=1;entryX=0.5;entryY=0;entryDx=0;entryDy=0;" edge="1" parent="WIyWlLk6GJQsqaUBKTNV-1" source="pLFZM72usyoBuc8QHLye-49" target="5OiQwkXpwTmZOVAmIXW2-321">
          <mxGeometry relative="1" as="geometry" />
        </mxCell>
        <mxCell id="pLFZM72usyoBuc8QHLye-49" value="Contains" style="rhombus;whiteSpace=wrap;html=1;comic=0;startSize=30;rounded=0;fillColor=#e3c800;fontColor=#000000;strokeColor=#B09500;" vertex="1" parent="WIyWlLk6GJQsqaUBKTNV-1">
          <mxGeometry x="970" y="485" width="80" height="80" as="geometry" />
        </mxCell>
        <mxCell id="5OiQwkXpwTmZOVAmIXW2-44" style="edgeStyle=orthogonalEdgeStyle;rounded=0;orthogonalLoop=1;jettySize=auto;html=1;" edge="1" parent="WIyWlLk6GJQsqaUBKTNV-1" source="pLFZM72usyoBuc8QHLye-52" target="pLFZM72usyoBuc8QHLye-55">
          <mxGeometry relative="1" as="geometry">
            <Array as="points">
              <mxPoint x="1640" y="640" />
              <mxPoint x="1640" y="640" />
            </Array>
          </mxGeometry>
        </mxCell>
        <mxCell id="5OiQwkXpwTmZOVAmIXW2-126" style="edgeStyle=orthogonalEdgeStyle;rounded=0;orthogonalLoop=1;jettySize=auto;html=1;entryX=0.5;entryY=0;entryDx=0;entryDy=0;" edge="1" parent="WIyWlLk6GJQsqaUBKTNV-1" source="pLFZM72usyoBuc8QHLye-52" target="5OiQwkXpwTmZOVAmIXW2-125">
          <mxGeometry relative="1" as="geometry" />
        </mxCell>
        <mxCell id="h9yrDQvfIrGnZo1wYAG7-188" value="" style="edgeStyle=orthogonalEdgeStyle;rounded=0;orthogonalLoop=1;jettySize=auto;html=1;" edge="1" parent="WIyWlLk6GJQsqaUBKTNV-1" source="pLFZM72usyoBuc8QHLye-52" target="h9yrDQvfIrGnZo1wYAG7-187">
          <mxGeometry relative="1" as="geometry" />
        </mxCell>
        <mxCell id="pLFZM72usyoBuc8QHLye-52" value="Meal" style="swimlane;fontStyle=0;childLayout=stackLayout;horizontal=1;startSize=30;horizontalStack=0;resizeParent=1;resizeParentMax=0;resizeLast=0;collapsible=1;marginBottom=0;metaEdit=0;treeFolding=0;treeMoving=0;enumerate=0;comic=0;rounded=0;fillColor=#e3c800;fontColor=#000000;strokeColor=#B09500;" vertex="1" parent="WIyWlLk6GJQsqaUBKTNV-1">
          <mxGeometry x="1544" y="710" width="140" height="180" as="geometry">
            <mxRectangle x="80" y="190" width="70" height="30" as="alternateBounds" />
          </mxGeometry>
        </mxCell>
        <mxCell id="pLFZM72usyoBuc8QHLye-53" value="ID: Integer" style="text;strokeColor=none;fillColor=none;align=left;verticalAlign=middle;spacingLeft=4;spacingRight=4;overflow=hidden;points=[[0,0.5],[1,0.5]];portConstraint=eastwest;rotatable=0;rounded=0;" vertex="1" parent="pLFZM72usyoBuc8QHLye-52">
          <mxGeometry y="30" width="140" height="30" as="geometry" />
        </mxCell>
        <mxCell id="pLFZM72usyoBuc8QHLye-54" value="Name: String" style="text;strokeColor=none;fillColor=none;align=left;verticalAlign=middle;spacingLeft=4;spacingRight=4;overflow=hidden;points=[[0,0.5],[1,0.5]];portConstraint=eastwest;rotatable=0;rounded=0;" vertex="1" parent="pLFZM72usyoBuc8QHLye-52">
          <mxGeometry y="60" width="140" height="30" as="geometry" />
        </mxCell>
        <mxCell id="5OiQwkXpwTmZOVAmIXW2-183" value="Type: String (Enum)" style="text;strokeColor=none;fillColor=none;align=left;verticalAlign=middle;spacingLeft=4;spacingRight=4;overflow=hidden;points=[[0,0.5],[1,0.5]];portConstraint=eastwest;rotatable=0;rounded=0;" vertex="1" parent="pLFZM72usyoBuc8QHLye-52">
          <mxGeometry y="90" width="140" height="30" as="geometry" />
        </mxCell>
        <mxCell id="5OiQwkXpwTmZOVAmIXW2-265" value="Points: Integer" style="text;strokeColor=none;fillColor=none;align=left;verticalAlign=middle;spacingLeft=4;spacingRight=4;overflow=hidden;points=[[0,0.5],[1,0.5]];portConstraint=eastwest;rotatable=0;rounded=0;" vertex="1" parent="pLFZM72usyoBuc8QHLye-52">
          <mxGeometry y="120" width="140" height="30" as="geometry" />
        </mxCell>
        <mxCell id="h9yrDQvfIrGnZo1wYAG7-177" value="SchedueledFor: Date" style="text;strokeColor=none;fillColor=none;align=left;verticalAlign=middle;spacingLeft=4;spacingRight=4;overflow=hidden;points=[[0,0.5],[1,0.5]];portConstraint=eastwest;rotatable=0;rounded=0;" vertex="1" parent="pLFZM72usyoBuc8QHLye-52">
          <mxGeometry y="150" width="140" height="30" as="geometry" />
        </mxCell>
        <mxCell id="h9yrDQvfIrGnZo1wYAG7-158" style="edgeStyle=orthogonalEdgeStyle;rounded=0;orthogonalLoop=1;jettySize=auto;html=1;entryX=0.5;entryY=0;entryDx=0;entryDy=0;" edge="1" parent="WIyWlLk6GJQsqaUBKTNV-1" source="pLFZM72usyoBuc8QHLye-55" target="pLFZM72usyoBuc8QHLye-57">
          <mxGeometry relative="1" as="geometry" />
        </mxCell>
        <mxCell id="pLFZM72usyoBuc8QHLye-55" value="Has" style="rhombus;whiteSpace=wrap;html=1;comic=0;startSize=30;rounded=0;fillColor=#e3c800;fontColor=#000000;strokeColor=#B09500;" vertex="1" parent="WIyWlLk6GJQsqaUBKTNV-1">
          <mxGeometry x="1600" y="440" width="80" height="70" as="geometry" />
        </mxCell>
        <mxCell id="pLFZM72usyoBuc8QHLye-57" value="Ingredient" style="swimlane;fontStyle=0;childLayout=stackLayout;horizontal=1;startSize=30;horizontalStack=0;resizeParent=1;resizeParentMax=0;resizeLast=0;collapsible=1;marginBottom=0;metaEdit=0;treeFolding=0;treeMoving=0;enumerate=0;comic=0;rounded=0;fillColor=#e3c800;fontColor=#000000;strokeColor=#B09500;" vertex="1" parent="WIyWlLk6GJQsqaUBKTNV-1">
          <mxGeometry x="1720" y="500" width="140" height="150" as="geometry">
            <mxRectangle x="80" y="190" width="70" height="30" as="alternateBounds" />
          </mxGeometry>
        </mxCell>
        <mxCell id="pLFZM72usyoBuc8QHLye-58" value="ID: Integer" style="text;strokeColor=none;fillColor=none;align=left;verticalAlign=middle;spacingLeft=4;spacingRight=4;overflow=hidden;points=[[0,0.5],[1,0.5]];portConstraint=eastwest;rotatable=0;rounded=0;" vertex="1" parent="pLFZM72usyoBuc8QHLye-57">
          <mxGeometry y="30" width="140" height="30" as="geometry" />
        </mxCell>
        <mxCell id="pLFZM72usyoBuc8QHLye-59" value="Name: String" style="text;strokeColor=none;fillColor=none;align=left;verticalAlign=middle;spacingLeft=4;spacingRight=4;overflow=hidden;points=[[0,0.5],[1,0.5]];portConstraint=eastwest;rotatable=0;rounded=0;" vertex="1" parent="pLFZM72usyoBuc8QHLye-57">
          <mxGeometry y="60" width="140" height="30" as="geometry" />
        </mxCell>
        <mxCell id="5OiQwkXpwTmZOVAmIXW2-184" value="Barcode: String" style="text;strokeColor=none;fillColor=none;align=left;verticalAlign=middle;spacingLeft=4;spacingRight=4;overflow=hidden;points=[[0,0.5],[1,0.5]];portConstraint=eastwest;rotatable=0;rounded=0;" vertex="1" parent="pLFZM72usyoBuc8QHLye-57">
          <mxGeometry y="90" width="140" height="30" as="geometry" />
        </mxCell>
        <mxCell id="5OiQwkXpwTmZOVAmIXW2-275" value="IsSnack: Boolean" style="text;strokeColor=none;fillColor=none;align=left;verticalAlign=middle;spacingLeft=4;spacingRight=4;overflow=hidden;points=[[0,0.5],[1,0.5]];portConstraint=eastwest;rotatable=0;rounded=0;" vertex="1" parent="pLFZM72usyoBuc8QHLye-57">
          <mxGeometry y="120" width="140" height="30" as="geometry" />
        </mxCell>
        <mxCell id="5OiQwkXpwTmZOVAmIXW2-46" style="edgeStyle=orthogonalEdgeStyle;rounded=0;orthogonalLoop=1;jettySize=auto;html=1;entryX=0.5;entryY=0;entryDx=0;entryDy=0;" edge="1" parent="WIyWlLk6GJQsqaUBKTNV-1" source="pLFZM72usyoBuc8QHLye-66" target="pLFZM72usyoBuc8QHLye-22">
          <mxGeometry relative="1" as="geometry">
            <mxPoint x="2233" y="680" as="targetPoint" />
          </mxGeometry>
        </mxCell>
        <mxCell id="pLFZM72usyoBuc8QHLye-66" value="Has" style="rhombus;whiteSpace=wrap;html=1;comic=0;startSize=30;rounded=0;fillColor=#e3c800;fontColor=#000000;strokeColor=#B09500;" vertex="1" parent="WIyWlLk6GJQsqaUBKTNV-1">
          <mxGeometry x="1970" y="505" width="80" height="80" as="geometry" />
        </mxCell>
        <mxCell id="pLFZM72usyoBuc8QHLye-68" value="WorkOutRoutine" style="swimlane;fontStyle=0;childLayout=stackLayout;horizontal=1;startSize=30;horizontalStack=0;resizeParent=1;resizeParentMax=0;resizeLast=0;collapsible=1;marginBottom=0;metaEdit=0;treeFolding=0;treeMoving=0;enumerate=0;comic=0;rounded=0;fillColor=#6d8764;fontColor=#ffffff;strokeColor=#3A5431;" vertex="1" parent="WIyWlLk6GJQsqaUBKTNV-1">
          <mxGeometry x="730" y="80" width="140" height="180" as="geometry">
            <mxRectangle x="80" y="190" width="70" height="30" as="alternateBounds" />
          </mxGeometry>
        </mxCell>
        <mxCell id="pLFZM72usyoBuc8QHLye-69" value="ID: Integer" style="text;strokeColor=none;fillColor=none;align=left;verticalAlign=middle;spacingLeft=4;spacingRight=4;overflow=hidden;points=[[0,0.5],[1,0.5]];portConstraint=eastwest;rotatable=0;rounded=0;" vertex="1" parent="pLFZM72usyoBuc8QHLye-68">
          <mxGeometry y="30" width="140" height="30" as="geometry" />
        </mxCell>
        <mxCell id="pLFZM72usyoBuc8QHLye-70" value="Type: String (Enum?)" style="text;strokeColor=none;fillColor=none;align=left;verticalAlign=middle;spacingLeft=4;spacingRight=4;overflow=hidden;points=[[0,0.5],[1,0.5]];portConstraint=eastwest;rotatable=0;rounded=0;" vertex="1" parent="pLFZM72usyoBuc8QHLye-68">
          <mxGeometry y="60" width="140" height="30" as="geometry" />
        </mxCell>
        <mxCell id="pLFZM72usyoBuc8QHLye-71" value="Goal: String (Enum?)" style="text;strokeColor=none;fillColor=none;align=left;verticalAlign=middle;spacingLeft=4;spacingRight=4;overflow=hidden;points=[[0,0.5],[1,0.5]];portConstraint=eastwest;rotatable=0;rounded=0;" vertex="1" parent="pLFZM72usyoBuc8QHLye-68">
          <mxGeometry y="90" width="140" height="30" as="geometry" />
        </mxCell>
        <mxCell id="h9yrDQvfIrGnZo1wYAG7-143" value="StartDate:Date" style="text;strokeColor=none;fillColor=none;align=left;verticalAlign=middle;spacingLeft=4;spacingRight=4;overflow=hidden;points=[[0,0.5],[1,0.5]];portConstraint=eastwest;rotatable=0;rounded=0;" vertex="1" parent="pLFZM72usyoBuc8QHLye-68">
          <mxGeometry y="120" width="140" height="30" as="geometry" />
        </mxCell>
        <mxCell id="h9yrDQvfIrGnZo1wYAG7-146" value="EndDate:Date" style="text;strokeColor=none;fillColor=none;align=left;verticalAlign=middle;spacingLeft=4;spacingRight=4;overflow=hidden;points=[[0,0.5],[1,0.5]];portConstraint=eastwest;rotatable=0;rounded=0;" vertex="1" parent="pLFZM72usyoBuc8QHLye-68">
          <mxGeometry y="150" width="140" height="30" as="geometry" />
        </mxCell>
        <mxCell id="h9yrDQvfIrGnZo1wYAG7-147" style="edgeStyle=orthogonalEdgeStyle;rounded=0;orthogonalLoop=1;jettySize=auto;html=1;" edge="1" parent="WIyWlLk6GJQsqaUBKTNV-1" source="pLFZM72usyoBuc8QHLye-74" target="5OiQwkXpwTmZOVAmIXW2-65">
          <mxGeometry relative="1" as="geometry" />
        </mxCell>
        <mxCell id="pLFZM72usyoBuc8QHLye-74" value="Contains" style="rhombus;whiteSpace=wrap;html=1;comic=0;startSize=30;rounded=0;fillColor=#6d8764;fontColor=#ffffff;strokeColor=#3A5431;" vertex="1" parent="WIyWlLk6GJQsqaUBKTNV-1">
          <mxGeometry x="1000" y="115" width="80" height="80" as="geometry" />
        </mxCell>
        <mxCell id="h9yrDQvfIrGnZo1wYAG7-150" style="edgeStyle=orthogonalEdgeStyle;rounded=0;orthogonalLoop=1;jettySize=auto;html=1;entryX=1;entryY=0.5;entryDx=0;entryDy=0;" edge="1" parent="WIyWlLk6GJQsqaUBKTNV-1" source="pLFZM72usyoBuc8QHLye-76" target="5OiQwkXpwTmZOVAmIXW2-49">
          <mxGeometry relative="1" as="geometry" />
        </mxCell>
        <mxCell id="pLFZM72usyoBuc8QHLye-76" value="WorkOut" style="swimlane;fontStyle=0;childLayout=stackLayout;horizontal=1;startSize=30;horizontalStack=0;resizeParent=1;resizeParentMax=0;resizeLast=0;collapsible=1;marginBottom=0;metaEdit=0;treeFolding=0;treeMoving=0;enumerate=0;comic=0;rounded=0;fillColor=#6d8764;fontColor=#ffffff;strokeColor=#3A5431;" vertex="1" parent="WIyWlLk6GJQsqaUBKTNV-1">
          <mxGeometry x="1550" y="110" width="140" height="300" as="geometry">
            <mxRectangle x="80" y="190" width="70" height="30" as="alternateBounds" />
          </mxGeometry>
        </mxCell>
        <mxCell id="pLFZM72usyoBuc8QHLye-77" value="ID: Integer" style="text;strokeColor=none;fillColor=none;align=left;verticalAlign=middle;spacingLeft=4;spacingRight=4;overflow=hidden;points=[[0,0.5],[1,0.5]];portConstraint=eastwest;rotatable=0;rounded=0;" vertex="1" parent="pLFZM72usyoBuc8QHLye-76">
          <mxGeometry y="30" width="140" height="30" as="geometry" />
        </mxCell>
        <mxCell id="pLFZM72usyoBuc8QHLye-78" value="Name: String" style="text;strokeColor=none;fillColor=none;align=left;verticalAlign=middle;spacingLeft=4;spacingRight=4;overflow=hidden;points=[[0,0.5],[1,0.5]];portConstraint=eastwest;rotatable=0;rounded=0;" vertex="1" parent="pLFZM72usyoBuc8QHLye-76">
          <mxGeometry y="60" width="140" height="30" as="geometry" />
        </mxCell>
        <mxCell id="pLFZM72usyoBuc8QHLye-79" value="Tutorial: Media" style="text;strokeColor=none;fillColor=none;align=left;verticalAlign=middle;spacingLeft=4;spacingRight=4;overflow=hidden;points=[[0,0.5],[1,0.5]];portConstraint=eastwest;rotatable=0;rounded=0;" vertex="1" parent="pLFZM72usyoBuc8QHLye-76">
          <mxGeometry y="90" width="140" height="30" as="geometry" />
        </mxCell>
        <mxCell id="5OiQwkXpwTmZOVAmIXW2-140" value="Duration: String" style="text;strokeColor=none;fillColor=none;align=left;verticalAlign=middle;spacingLeft=4;spacingRight=4;overflow=hidden;points=[[0,0.5],[1,0.5]];portConstraint=eastwest;rotatable=0;rounded=0;" vertex="1" parent="pLFZM72usyoBuc8QHLye-76">
          <mxGeometry y="120" width="140" height="30" as="geometry" />
        </mxCell>
        <mxCell id="5OiQwkXpwTmZOVAmIXW2-141" value="Count: Int" style="text;strokeColor=none;fillColor=none;align=left;verticalAlign=middle;spacingLeft=4;spacingRight=4;overflow=hidden;points=[[0,0.5],[1,0.5]];portConstraint=eastwest;rotatable=0;rounded=0;" vertex="1" parent="pLFZM72usyoBuc8QHLye-76">
          <mxGeometry y="150" width="140" height="30" as="geometry" />
        </mxCell>
        <mxCell id="5OiQwkXpwTmZOVAmIXW2-173" value="EndDate: Date" style="text;strokeColor=none;fillColor=none;align=left;verticalAlign=middle;spacingLeft=4;spacingRight=4;overflow=hidden;points=[[0,0.5],[1,0.5]];portConstraint=eastwest;rotatable=0;rounded=0;" vertex="1" parent="pLFZM72usyoBuc8QHLye-76">
          <mxGeometry y="180" width="140" height="30" as="geometry" />
        </mxCell>
        <mxCell id="5OiQwkXpwTmZOVAmIXW2-174" value="isDone: Boolean" style="text;strokeColor=none;fillColor=none;align=left;verticalAlign=middle;spacingLeft=4;spacingRight=4;overflow=hidden;points=[[0,0.5],[1,0.5]];portConstraint=eastwest;rotatable=0;rounded=0;" vertex="1" parent="pLFZM72usyoBuc8QHLye-76">
          <mxGeometry y="210" width="140" height="30" as="geometry" />
        </mxCell>
        <mxCell id="5OiQwkXpwTmZOVAmIXW2-176" value="CalBurnRation: Double" style="text;strokeColor=none;fillColor=none;align=left;verticalAlign=middle;spacingLeft=4;spacingRight=4;overflow=hidden;points=[[0,0.5],[1,0.5]];portConstraint=eastwest;rotatable=0;rounded=0;" vertex="1" parent="pLFZM72usyoBuc8QHLye-76">
          <mxGeometry y="240" width="140" height="30" as="geometry" />
        </mxCell>
        <mxCell id="5OiQwkXpwTmZOVAmIXW2-264" value="Points: Integer" style="text;strokeColor=none;fillColor=none;align=left;verticalAlign=middle;spacingLeft=4;spacingRight=4;overflow=hidden;points=[[0,0.5],[1,0.5]];portConstraint=eastwest;rotatable=0;rounded=0;" vertex="1" parent="pLFZM72usyoBuc8QHLye-76">
          <mxGeometry y="270" width="140" height="30" as="geometry" />
        </mxCell>
        <mxCell id="5OiQwkXpwTmZOVAmIXW2-8" value="Vitamins" style="swimlane;fontStyle=0;childLayout=stackLayout;horizontal=1;startSize=30;horizontalStack=0;resizeParent=1;resizeParentMax=0;resizeLast=0;collapsible=1;marginBottom=0;metaEdit=0;treeFolding=0;treeMoving=0;enumerate=0;comic=0;rounded=0;fillColor=#e3c800;fontColor=#000000;strokeColor=#B09500;" vertex="1" parent="WIyWlLk6GJQsqaUBKTNV-1">
          <mxGeometry x="1880" y="670" width="140" height="150" as="geometry">
            <mxRectangle x="80" y="590" width="70" height="30" as="alternateBounds" />
          </mxGeometry>
        </mxCell>
        <mxCell id="5OiQwkXpwTmZOVAmIXW2-9" value="VitD: Double" style="text;strokeColor=none;fillColor=none;align=left;verticalAlign=middle;spacingLeft=4;spacingRight=4;overflow=hidden;points=[[0,0.5],[1,0.5]];portConstraint=eastwest;rotatable=0;rounded=0;" vertex="1" parent="5OiQwkXpwTmZOVAmIXW2-8">
          <mxGeometry y="30" width="140" height="30" as="geometry" />
        </mxCell>
        <mxCell id="5OiQwkXpwTmZOVAmIXW2-10" value="Calcium: Double" style="text;strokeColor=none;fillColor=none;align=left;verticalAlign=middle;spacingLeft=4;spacingRight=4;overflow=hidden;points=[[0,0.5],[1,0.5]];portConstraint=eastwest;rotatable=0;rounded=0;" vertex="1" parent="5OiQwkXpwTmZOVAmIXW2-8">
          <mxGeometry y="60" width="140" height="30" as="geometry" />
        </mxCell>
        <mxCell id="5OiQwkXpwTmZOVAmIXW2-11" value="Iron:Double" style="text;strokeColor=none;fillColor=none;align=left;verticalAlign=middle;spacingLeft=4;spacingRight=4;overflow=hidden;points=[[0,0.5],[1,0.5]];portConstraint=eastwest;rotatable=0;rounded=0;" vertex="1" parent="5OiQwkXpwTmZOVAmIXW2-8">
          <mxGeometry y="90" width="140" height="30" as="geometry" />
        </mxCell>
        <mxCell id="5OiQwkXpwTmZOVAmIXW2-12" value="Potassium: Double" style="text;strokeColor=none;fillColor=none;align=left;verticalAlign=middle;spacingLeft=4;spacingRight=4;overflow=hidden;points=[[0,0.5],[1,0.5]];portConstraint=eastwest;rotatable=0;rounded=0;" vertex="1" parent="5OiQwkXpwTmZOVAmIXW2-8">
          <mxGeometry y="120" width="140" height="30" as="geometry" />
        </mxCell>
        <mxCell id="h9yrDQvfIrGnZo1wYAG7-131" style="edgeStyle=orthogonalEdgeStyle;rounded=0;orthogonalLoop=1;jettySize=auto;html=1;" edge="1" parent="WIyWlLk6GJQsqaUBKTNV-1" source="5OiQwkXpwTmZOVAmIXW2-16" target="5OiQwkXpwTmZOVAmIXW2-19">
          <mxGeometry relative="1" as="geometry" />
        </mxCell>
        <mxCell id="h9yrDQvfIrGnZo1wYAG7-132" style="edgeStyle=orthogonalEdgeStyle;rounded=0;orthogonalLoop=1;jettySize=auto;html=1;" edge="1" parent="WIyWlLk6GJQsqaUBKTNV-1" source="5OiQwkXpwTmZOVAmIXW2-16" target="5OiQwkXpwTmZOVAmIXW2-146">
          <mxGeometry relative="1" as="geometry" />
        </mxCell>
        <mxCell id="h9yrDQvfIrGnZo1wYAG7-137" style="edgeStyle=orthogonalEdgeStyle;rounded=0;orthogonalLoop=1;jettySize=auto;html=1;" edge="1" parent="WIyWlLk6GJQsqaUBKTNV-1" source="5OiQwkXpwTmZOVAmIXW2-16" target="5OiQwkXpwTmZOVAmIXW2-111">
          <mxGeometry relative="1" as="geometry" />
        </mxCell>
        <mxCell id="5OiQwkXpwTmZOVAmIXW2-16" value="Contains&lt;br&gt;3x" style="rhombus;whiteSpace=wrap;html=1;comic=0;startSize=30;rounded=0;fillColor=#a20025;fontColor=#ffffff;strokeColor=#6F0000;" vertex="1" parent="WIyWlLk6GJQsqaUBKTNV-1">
          <mxGeometry x="-160" y="950" width="80" height="80" as="geometry" />
        </mxCell>
        <mxCell id="5OiQwkXpwTmZOVAmIXW2-43" style="edgeStyle=orthogonalEdgeStyle;rounded=0;orthogonalLoop=1;jettySize=auto;html=1;entryX=0.5;entryY=1;entryDx=0;entryDy=0;" edge="1" parent="WIyWlLk6GJQsqaUBKTNV-1" source="5OiQwkXpwTmZOVAmIXW2-19" target="pLFZM72usyoBuc8QHLye-49">
          <mxGeometry relative="1" as="geometry">
            <Array as="points">
              <mxPoint x="-198" y="1690" />
              <mxPoint x="1010" y="1690" />
            </Array>
          </mxGeometry>
        </mxCell>
        <mxCell id="5OiQwkXpwTmZOVAmIXW2-19" value="MealsHistory" style="swimlane;fontStyle=0;childLayout=stackLayout;horizontal=1;startSize=30;horizontalStack=0;resizeParent=1;resizeParentMax=0;resizeLast=0;collapsible=1;marginBottom=0;metaEdit=0;treeFolding=0;treeMoving=0;enumerate=0;comic=0;rounded=0;fillColor=#e3c800;fontColor=#000000;strokeColor=#B09500;" vertex="1" parent="WIyWlLk6GJQsqaUBKTNV-1">
          <mxGeometry x="-296" y="1240" width="166" height="420" as="geometry">
            <mxRectangle x="80" y="590" width="70" height="30" as="alternateBounds" />
          </mxGeometry>
        </mxCell>
        <mxCell id="5OiQwkXpwTmZOVAmIXW2-20" value="Id: Integer" style="text;strokeColor=none;fillColor=none;align=left;verticalAlign=middle;spacingLeft=4;spacingRight=4;overflow=hidden;points=[[0,0.5],[1,0.5]];portConstraint=eastwest;rotatable=0;rounded=0;" vertex="1" parent="5OiQwkXpwTmZOVAmIXW2-19">
          <mxGeometry y="30" width="166" height="30" as="geometry" />
        </mxCell>
        <mxCell id="5OiQwkXpwTmZOVAmIXW2-22" value="TFat: Double" style="text;strokeColor=none;fillColor=none;align=left;verticalAlign=middle;spacingLeft=4;spacingRight=4;overflow=hidden;points=[[0,0.5],[1,0.5]];portConstraint=eastwest;rotatable=0;rounded=0;" vertex="1" parent="5OiQwkXpwTmZOVAmIXW2-19">
          <mxGeometry y="60" width="166" height="30" as="geometry" />
        </mxCell>
        <mxCell id="5OiQwkXpwTmZOVAmIXW2-23" value="SatFat: Double" style="text;strokeColor=none;fillColor=none;align=left;verticalAlign=middle;spacingLeft=4;spacingRight=4;overflow=hidden;points=[[0,0.5],[1,0.5]];portConstraint=eastwest;rotatable=0;rounded=0;" vertex="1" parent="5OiQwkXpwTmZOVAmIXW2-19">
          <mxGeometry y="90" width="166" height="30" as="geometry" />
        </mxCell>
        <mxCell id="5OiQwkXpwTmZOVAmIXW2-24" value="TransFat" style="text;strokeColor=none;fillColor=none;align=left;verticalAlign=middle;spacingLeft=4;spacingRight=4;overflow=hidden;points=[[0,0.5],[1,0.5]];portConstraint=eastwest;rotatable=0;rounded=0;" vertex="1" parent="5OiQwkXpwTmZOVAmIXW2-19">
          <mxGeometry y="120" width="166" height="30" as="geometry" />
        </mxCell>
        <mxCell id="5OiQwkXpwTmZOVAmIXW2-25" value="Cholesterol: Double" style="text;strokeColor=none;fillColor=none;align=left;verticalAlign=middle;spacingLeft=4;spacingRight=4;overflow=hidden;points=[[0,0.5],[1,0.5]];portConstraint=eastwest;rotatable=0;rounded=0;" vertex="1" parent="5OiQwkXpwTmZOVAmIXW2-19">
          <mxGeometry y="150" width="166" height="30" as="geometry" />
        </mxCell>
        <mxCell id="5OiQwkXpwTmZOVAmIXW2-26" value="Sodium: Double" style="text;strokeColor=none;fillColor=none;align=left;verticalAlign=middle;spacingLeft=4;spacingRight=4;overflow=hidden;points=[[0,0.5],[1,0.5]];portConstraint=eastwest;rotatable=0;rounded=0;" vertex="1" parent="5OiQwkXpwTmZOVAmIXW2-19">
          <mxGeometry y="180" width="166" height="30" as="geometry" />
        </mxCell>
        <mxCell id="5OiQwkXpwTmZOVAmIXW2-27" value="TCarbs: Double" style="text;strokeColor=none;fillColor=none;align=left;verticalAlign=middle;spacingLeft=4;spacingRight=4;overflow=hidden;points=[[0,0.5],[1,0.5]];portConstraint=eastwest;rotatable=0;rounded=0;" vertex="1" parent="5OiQwkXpwTmZOVAmIXW2-19">
          <mxGeometry y="210" width="166" height="30" as="geometry" />
        </mxCell>
        <mxCell id="5OiQwkXpwTmZOVAmIXW2-28" value="TCDietaryFiber: Double" style="text;strokeColor=none;fillColor=none;align=left;verticalAlign=middle;spacingLeft=4;spacingRight=4;overflow=hidden;points=[[0,0.5],[1,0.5]];portConstraint=eastwest;rotatable=0;rounded=0;" vertex="1" parent="5OiQwkXpwTmZOVAmIXW2-19">
          <mxGeometry y="240" width="166" height="30" as="geometry" />
        </mxCell>
        <mxCell id="5OiQwkXpwTmZOVAmIXW2-29" value="TCTSugar: Double" style="text;strokeColor=none;fillColor=none;align=left;verticalAlign=middle;spacingLeft=4;spacingRight=4;overflow=hidden;points=[[0,0.5],[1,0.5]];portConstraint=eastwest;rotatable=0;rounded=0;" vertex="1" parent="5OiQwkXpwTmZOVAmIXW2-19">
          <mxGeometry y="270" width="166" height="30" as="geometry" />
        </mxCell>
        <mxCell id="5OiQwkXpwTmZOVAmIXW2-30" value="TCTSAdded: Double" style="text;strokeColor=none;fillColor=none;align=left;verticalAlign=middle;spacingLeft=4;spacingRight=4;overflow=hidden;points=[[0,0.5],[1,0.5]];portConstraint=eastwest;rotatable=0;rounded=0;" vertex="1" parent="5OiQwkXpwTmZOVAmIXW2-19">
          <mxGeometry y="300" width="166" height="30" as="geometry" />
        </mxCell>
        <mxCell id="5OiQwkXpwTmZOVAmIXW2-31" value="Protein: Double" style="text;strokeColor=none;fillColor=none;align=left;verticalAlign=middle;spacingLeft=4;spacingRight=4;overflow=hidden;points=[[0,0.5],[1,0.5]];portConstraint=eastwest;rotatable=0;rounded=0;" vertex="1" parent="5OiQwkXpwTmZOVAmIXW2-19">
          <mxGeometry y="330" width="166" height="30" as="geometry" />
        </mxCell>
        <mxCell id="5OiQwkXpwTmZOVAmIXW2-143" value="OriginalGoal: Double" style="text;strokeColor=none;fillColor=none;align=left;verticalAlign=middle;spacingLeft=4;spacingRight=4;overflow=hidden;points=[[0,0.5],[1,0.5]];portConstraint=eastwest;rotatable=0;rounded=0;" vertex="1" parent="5OiQwkXpwTmZOVAmIXW2-19">
          <mxGeometry y="360" width="166" height="30" as="geometry" />
        </mxCell>
        <mxCell id="h9yrDQvfIrGnZo1wYAG7-130" value="Performance: Double" style="text;strokeColor=none;fillColor=none;align=left;verticalAlign=middle;spacingLeft=4;spacingRight=4;overflow=hidden;points=[[0,0.5],[1,0.5]];portConstraint=eastwest;rotatable=0;rounded=0;" vertex="1" parent="5OiQwkXpwTmZOVAmIXW2-19">
          <mxGeometry y="390" width="166" height="30" as="geometry" />
        </mxCell>
        <mxCell id="5OiQwkXpwTmZOVAmIXW2-45" style="edgeStyle=orthogonalEdgeStyle;rounded=0;orthogonalLoop=1;jettySize=auto;html=1;entryX=0;entryY=0.5;entryDx=0;entryDy=0;" edge="1" parent="WIyWlLk6GJQsqaUBKTNV-1" source="pLFZM72usyoBuc8QHLye-58" target="pLFZM72usyoBuc8QHLye-66">
          <mxGeometry relative="1" as="geometry" />
        </mxCell>
        <mxCell id="5OiQwkXpwTmZOVAmIXW2-137" style="edgeStyle=orthogonalEdgeStyle;rounded=0;orthogonalLoop=1;jettySize=auto;html=1;entryX=0.5;entryY=0;entryDx=0;entryDy=0;" edge="1" parent="WIyWlLk6GJQsqaUBKTNV-1" source="5OiQwkXpwTmZOVAmIXW2-49" target="5OiQwkXpwTmZOVAmIXW2-50">
          <mxGeometry relative="1" as="geometry" />
        </mxCell>
        <mxCell id="5OiQwkXpwTmZOVAmIXW2-49" value="Focuses On" style="rhombus;whiteSpace=wrap;html=1;comic=0;startSize=30;rounded=0;fillColor=#6d8764;fontColor=#ffffff;strokeColor=#3A5431;" vertex="1" parent="WIyWlLk6GJQsqaUBKTNV-1">
          <mxGeometry x="1220" y="225" width="80" height="70" as="geometry" />
        </mxCell>
        <mxCell id="5OiQwkXpwTmZOVAmIXW2-50" value="BPart" style="swimlane;fontStyle=0;childLayout=stackLayout;horizontal=1;startSize=30;horizontalStack=0;resizeParent=1;resizeParentMax=0;resizeLast=0;collapsible=1;marginBottom=0;metaEdit=0;treeFolding=0;treeMoving=0;enumerate=0;comic=0;rounded=0;fillColor=#6d8764;fontColor=#ffffff;strokeColor=#3A5431;" vertex="1" parent="WIyWlLk6GJQsqaUBKTNV-1">
          <mxGeometry x="950" y="290" width="140" height="90" as="geometry">
            <mxRectangle x="80" y="190" width="70" height="30" as="alternateBounds" />
          </mxGeometry>
        </mxCell>
        <mxCell id="5OiQwkXpwTmZOVAmIXW2-51" value="ID: Integer" style="text;strokeColor=none;fillColor=none;align=left;verticalAlign=middle;spacingLeft=4;spacingRight=4;overflow=hidden;points=[[0,0.5],[1,0.5]];portConstraint=eastwest;rotatable=0;rounded=0;" vertex="1" parent="5OiQwkXpwTmZOVAmIXW2-50">
          <mxGeometry y="30" width="140" height="30" as="geometry" />
        </mxCell>
        <mxCell id="5OiQwkXpwTmZOVAmIXW2-52" value="PName: String " style="text;strokeColor=none;fillColor=none;align=left;verticalAlign=middle;spacingLeft=4;spacingRight=4;overflow=hidden;points=[[0,0.5],[1,0.5]];portConstraint=eastwest;rotatable=0;rounded=0;" vertex="1" parent="5OiQwkXpwTmZOVAmIXW2-50">
          <mxGeometry y="60" width="140" height="30" as="geometry" />
        </mxCell>
        <mxCell id="5OiQwkXpwTmZOVAmIXW2-65" value="WorkOutPackage" style="swimlane;fontStyle=0;childLayout=stackLayout;horizontal=1;startSize=30;horizontalStack=0;resizeParent=1;resizeParentMax=0;resizeLast=0;collapsible=1;marginBottom=0;metaEdit=0;treeFolding=0;treeMoving=0;enumerate=0;comic=0;rounded=0;fillColor=#6d8764;fontColor=#ffffff;strokeColor=#3A5431;" vertex="1" parent="WIyWlLk6GJQsqaUBKTNV-1">
          <mxGeometry x="1170.5" y="95" width="140" height="120" as="geometry">
            <mxRectangle x="80" y="190" width="70" height="30" as="alternateBounds" />
          </mxGeometry>
        </mxCell>
        <mxCell id="5OiQwkXpwTmZOVAmIXW2-66" value="ID: Integer" style="text;strokeColor=none;fillColor=none;align=left;verticalAlign=middle;spacingLeft=4;spacingRight=4;overflow=hidden;points=[[0,0.5],[1,0.5]];portConstraint=eastwest;rotatable=0;rounded=0;" vertex="1" parent="5OiQwkXpwTmZOVAmIXW2-65">
          <mxGeometry y="30" width="140" height="30" as="geometry" />
        </mxCell>
        <mxCell id="5OiQwkXpwTmZOVAmIXW2-67" value="Name: String" style="text;strokeColor=none;fillColor=none;align=left;verticalAlign=middle;spacingLeft=4;spacingRight=4;overflow=hidden;points=[[0,0.5],[1,0.5]];portConstraint=eastwest;rotatable=0;rounded=0;" vertex="1" parent="5OiQwkXpwTmZOVAmIXW2-65">
          <mxGeometry y="60" width="140" height="30" as="geometry" />
        </mxCell>
        <mxCell id="5OiQwkXpwTmZOVAmIXW2-79" value="Level: Integer" style="text;strokeColor=none;fillColor=none;align=left;verticalAlign=middle;spacingLeft=4;spacingRight=4;overflow=hidden;points=[[0,0.5],[1,0.5]];portConstraint=eastwest;rotatable=0;rounded=0;" vertex="1" parent="5OiQwkXpwTmZOVAmIXW2-65">
          <mxGeometry y="90" width="140" height="30" as="geometry" />
        </mxCell>
        <mxCell id="h9yrDQvfIrGnZo1wYAG7-152" style="edgeStyle=orthogonalEdgeStyle;rounded=0;orthogonalLoop=1;jettySize=auto;html=1;entryX=0.5;entryY=0;entryDx=0;entryDy=0;" edge="1" parent="WIyWlLk6GJQsqaUBKTNV-1" source="5OiQwkXpwTmZOVAmIXW2-75" target="pLFZM72usyoBuc8QHLye-76">
          <mxGeometry relative="1" as="geometry" />
        </mxCell>
        <mxCell id="5OiQwkXpwTmZOVAmIXW2-75" value="Contains" style="rhombus;whiteSpace=wrap;html=1;comic=0;startSize=30;rounded=0;fillColor=#6d8764;fontColor=#ffffff;strokeColor=#3A5431;" vertex="1" parent="WIyWlLk6GJQsqaUBKTNV-1">
          <mxGeometry x="1400" y="135" width="80" height="70" as="geometry" />
        </mxCell>
        <mxCell id="h9yrDQvfIrGnZo1wYAG7-142" style="edgeStyle=orthogonalEdgeStyle;rounded=0;orthogonalLoop=1;jettySize=auto;html=1;" edge="1" parent="WIyWlLk6GJQsqaUBKTNV-1" source="5OiQwkXpwTmZOVAmIXW2-111" target="5OiQwkXpwTmZOVAmIXW2-121">
          <mxGeometry relative="1" as="geometry">
            <Array as="points">
              <mxPoint x="430" y="625" />
              <mxPoint x="430" y="320" />
            </Array>
          </mxGeometry>
        </mxCell>
        <mxCell id="5OiQwkXpwTmZOVAmIXW2-111" value="Plan" style="swimlane;fontStyle=0;childLayout=stackLayout;horizontal=1;startSize=30;horizontalStack=0;resizeParent=1;resizeParentMax=0;resizeLast=0;collapsible=1;marginBottom=0;metaEdit=0;treeFolding=0;treeMoving=0;enumerate=0;comic=0;rounded=0;fillColor=#e51400;strokeColor=#B20000;fontColor=#ffffff;" vertex="1" parent="WIyWlLk6GJQsqaUBKTNV-1">
          <mxGeometry x="40" y="500" width="140" height="240" as="geometry">
            <mxRectangle x="80" y="190" width="70" height="30" as="alternateBounds" />
          </mxGeometry>
        </mxCell>
        <mxCell id="5OiQwkXpwTmZOVAmIXW2-112" value="ID: Integer" style="text;strokeColor=none;fillColor=none;align=left;verticalAlign=middle;spacingLeft=4;spacingRight=4;overflow=hidden;points=[[0,0.5],[1,0.5]];portConstraint=eastwest;rotatable=0;rounded=0;" vertex="1" parent="5OiQwkXpwTmZOVAmIXW2-111">
          <mxGeometry y="30" width="140" height="30" as="geometry" />
        </mxCell>
        <mxCell id="5OiQwkXpwTmZOVAmIXW2-114" value="Goal: String (Enum?)" style="text;strokeColor=none;fillColor=none;align=left;verticalAlign=middle;spacingLeft=4;spacingRight=4;overflow=hidden;points=[[0,0.5],[1,0.5]];portConstraint=eastwest;rotatable=0;rounded=0;" vertex="1" parent="5OiQwkXpwTmZOVAmIXW2-111">
          <mxGeometry y="60" width="140" height="30" as="geometry" />
        </mxCell>
        <mxCell id="5OiQwkXpwTmZOVAmIXW2-113" value="Type: String (Enum?)" style="text;strokeColor=none;fillColor=none;align=left;verticalAlign=middle;spacingLeft=4;spacingRight=4;overflow=hidden;points=[[0,0.5],[1,0.5]];portConstraint=eastwest;rotatable=0;rounded=0;" vertex="1" parent="5OiQwkXpwTmZOVAmIXW2-111">
          <mxGeometry y="90" width="140" height="30" as="geometry" />
        </mxCell>
        <mxCell id="5OiQwkXpwTmZOVAmIXW2-116" value="WorkOutCoachId: integer" style="text;strokeColor=none;fillColor=none;align=left;verticalAlign=middle;spacingLeft=4;spacingRight=4;overflow=hidden;points=[[0,0.5],[1,0.5]];portConstraint=eastwest;rotatable=0;rounded=0;" vertex="1" parent="5OiQwkXpwTmZOVAmIXW2-111">
          <mxGeometry y="120" width="140" height="30" as="geometry" />
        </mxCell>
        <mxCell id="5OiQwkXpwTmZOVAmIXW2-118" value="StartDate: Date" style="text;strokeColor=none;fillColor=none;align=left;verticalAlign=middle;spacingLeft=4;spacingRight=4;overflow=hidden;points=[[0,0.5],[1,0.5]];portConstraint=eastwest;rotatable=0;rounded=0;" vertex="1" parent="5OiQwkXpwTmZOVAmIXW2-111">
          <mxGeometry y="150" width="140" height="30" as="geometry" />
        </mxCell>
        <mxCell id="5OiQwkXpwTmZOVAmIXW2-119" value="EndDate: Date" style="text;strokeColor=none;fillColor=none;align=left;verticalAlign=middle;spacingLeft=4;spacingRight=4;overflow=hidden;points=[[0,0.5],[1,0.5]];portConstraint=eastwest;rotatable=0;rounded=0;" vertex="1" parent="5OiQwkXpwTmZOVAmIXW2-111">
          <mxGeometry y="180" width="140" height="30" as="geometry" />
        </mxCell>
        <mxCell id="5OiQwkXpwTmZOVAmIXW2-120" value="isActive: Boolean" style="text;strokeColor=none;fillColor=none;align=left;verticalAlign=middle;spacingLeft=4;spacingRight=4;overflow=hidden;points=[[0,0.5],[1,0.5]];portConstraint=eastwest;rotatable=0;rounded=0;" vertex="1" parent="5OiQwkXpwTmZOVAmIXW2-111">
          <mxGeometry y="210" width="140" height="30" as="geometry" />
        </mxCell>
        <mxCell id="5OiQwkXpwTmZOVAmIXW2-130" style="edgeStyle=orthogonalEdgeStyle;rounded=0;orthogonalLoop=1;jettySize=auto;html=1;entryX=0;entryY=0.5;entryDx=0;entryDy=0;" edge="1" parent="WIyWlLk6GJQsqaUBKTNV-1" source="5OiQwkXpwTmZOVAmIXW2-121" target="5OiQwkXpwTmZOVAmIXW2-61">
          <mxGeometry relative="1" as="geometry" />
        </mxCell>
        <mxCell id="h9yrDQvfIrGnZo1wYAG7-151" style="edgeStyle=orthogonalEdgeStyle;rounded=0;orthogonalLoop=1;jettySize=auto;html=1;entryX=0.5;entryY=0;entryDx=0;entryDy=0;" edge="1" parent="WIyWlLk6GJQsqaUBKTNV-1" source="5OiQwkXpwTmZOVAmIXW2-121" target="pLFZM72usyoBuc8QHLye-68">
          <mxGeometry relative="1" as="geometry" />
        </mxCell>
        <mxCell id="5OiQwkXpwTmZOVAmIXW2-121" value="Contains&lt;br&gt;AND/OR" style="rhombus;whiteSpace=wrap;html=1;comic=0;startSize=30;rounded=0;fillColor=#e51400;fontColor=#ffffff;strokeColor=#B20000;" vertex="1" parent="WIyWlLk6GJQsqaUBKTNV-1">
          <mxGeometry x="610" y="275" width="80" height="80" as="geometry" />
        </mxCell>
        <mxCell id="5OiQwkXpwTmZOVAmIXW2-127" style="edgeStyle=orthogonalEdgeStyle;rounded=0;orthogonalLoop=1;jettySize=auto;html=1;entryX=0.507;entryY=1.01;entryDx=0;entryDy=0;entryPerimeter=0;" edge="1" parent="WIyWlLk6GJQsqaUBKTNV-1" source="5OiQwkXpwTmZOVAmIXW2-125" target="5OiQwkXpwTmZOVAmIXW2-12">
          <mxGeometry relative="1" as="geometry" />
        </mxCell>
        <mxCell id="5OiQwkXpwTmZOVAmIXW2-139" style="edgeStyle=orthogonalEdgeStyle;rounded=0;orthogonalLoop=1;jettySize=auto;html=1;entryX=0.453;entryY=0.971;entryDx=0;entryDy=0;entryPerimeter=0;" edge="1" parent="WIyWlLk6GJQsqaUBKTNV-1" source="5OiQwkXpwTmZOVAmIXW2-125" target="pLFZM72usyoBuc8QHLye-93">
          <mxGeometry relative="1" as="geometry" />
        </mxCell>
        <mxCell id="5OiQwkXpwTmZOVAmIXW2-125" value="Has Total" style="rhombus;whiteSpace=wrap;html=1;comic=0;startSize=30;rounded=0;fillColor=#e3c800;fontColor=#000000;strokeColor=#B09500;" vertex="1" parent="WIyWlLk6GJQsqaUBKTNV-1">
          <mxGeometry x="1700" y="940" width="80" height="70" as="geometry" />
        </mxCell>
        <mxCell id="5OiQwkXpwTmZOVAmIXW2-132" style="edgeStyle=orthogonalEdgeStyle;rounded=0;orthogonalLoop=1;jettySize=auto;html=1;" edge="1" parent="WIyWlLk6GJQsqaUBKTNV-1" source="pLFZM72usyoBuc8QHLye-70" target="pLFZM72usyoBuc8QHLye-74">
          <mxGeometry relative="1" as="geometry">
            <Array as="points">
              <mxPoint x="1040" y="145" />
            </Array>
          </mxGeometry>
        </mxCell>
        <mxCell id="h9yrDQvfIrGnZo1wYAG7-139" style="edgeStyle=orthogonalEdgeStyle;rounded=0;orthogonalLoop=1;jettySize=auto;html=1;" edge="1" parent="WIyWlLk6GJQsqaUBKTNV-1" source="5OiQwkXpwTmZOVAmIXW2-146" target="5OiQwkXpwTmZOVAmIXW2-177">
          <mxGeometry relative="1" as="geometry" />
        </mxCell>
        <mxCell id="5OiQwkXpwTmZOVAmIXW2-146" value="WorkOutRoutineHistory" style="swimlane;fontStyle=0;childLayout=stackLayout;horizontal=1;startSize=30;horizontalStack=0;resizeParent=1;resizeParentMax=0;resizeLast=0;collapsible=1;marginBottom=0;metaEdit=0;treeFolding=0;treeMoving=0;enumerate=0;comic=0;rounded=0;fillColor=#6d8764;fontColor=#ffffff;strokeColor=#3A5431;" vertex="1" parent="WIyWlLk6GJQsqaUBKTNV-1">
          <mxGeometry x="-110" y="1240" width="180" height="270" as="geometry">
            <mxRectangle x="290" y="700" width="100" height="30" as="alternateBounds" />
          </mxGeometry>
        </mxCell>
        <mxCell id="5OiQwkXpwTmZOVAmIXW2-161" value="WorkoutHistoryId: Integer" style="text;strokeColor=none;fillColor=none;align=left;verticalAlign=middle;spacingLeft=4;spacingRight=4;overflow=hidden;points=[[0,0.5],[1,0.5]];portConstraint=eastwest;rotatable=0;rounded=0;" vertex="1" parent="5OiQwkXpwTmZOVAmIXW2-146">
          <mxGeometry y="30" width="180" height="30" as="geometry" />
        </mxCell>
        <mxCell id="5OiQwkXpwTmZOVAmIXW2-147" value="WorkoutPackageId?: integer" style="text;strokeColor=none;fillColor=none;align=left;verticalAlign=middle;spacingLeft=4;spacingRight=4;overflow=hidden;points=[[0,0.5],[1,0.5]];portConstraint=eastwest;rotatable=0;rounded=0;" vertex="1" parent="5OiQwkXpwTmZOVAmIXW2-146">
          <mxGeometry y="60" width="180" height="30" as="geometry" />
        </mxCell>
        <mxCell id="5OiQwkXpwTmZOVAmIXW2-164" value="UserId: Integer" style="text;strokeColor=none;fillColor=none;align=left;verticalAlign=middle;spacingLeft=4;spacingRight=4;overflow=hidden;points=[[0,0.5],[1,0.5]];portConstraint=eastwest;rotatable=0;rounded=0;" vertex="1" parent="5OiQwkXpwTmZOVAmIXW2-146">
          <mxGeometry y="90" width="180" height="30" as="geometry" />
        </mxCell>
        <mxCell id="5OiQwkXpwTmZOVAmIXW2-148" value="Date: Date" style="text;strokeColor=none;fillColor=none;align=left;verticalAlign=middle;spacingLeft=4;spacingRight=4;overflow=hidden;points=[[0,0.5],[1,0.5]];portConstraint=eastwest;rotatable=0;rounded=0;" vertex="1" parent="5OiQwkXpwTmZOVAmIXW2-146">
          <mxGeometry y="120" width="180" height="30" as="geometry" />
        </mxCell>
        <mxCell id="5OiQwkXpwTmZOVAmIXW2-160" value="Type/s: String" style="text;strokeColor=none;fillColor=none;align=left;verticalAlign=middle;spacingLeft=4;spacingRight=4;overflow=hidden;points=[[0,0.5],[1,0.5]];portConstraint=eastwest;rotatable=0;rounded=0;" vertex="1" parent="5OiQwkXpwTmZOVAmIXW2-146">
          <mxGeometry y="150" width="180" height="30" as="geometry" />
        </mxCell>
        <mxCell id="5OiQwkXpwTmZOVAmIXW2-162" value="Goal: String" style="text;strokeColor=none;fillColor=none;align=left;verticalAlign=middle;spacingLeft=4;spacingRight=4;overflow=hidden;points=[[0,0.5],[1,0.5]];portConstraint=eastwest;rotatable=0;rounded=0;" vertex="1" parent="5OiQwkXpwTmZOVAmIXW2-146">
          <mxGeometry y="180" width="180" height="30" as="geometry" />
        </mxCell>
        <mxCell id="5OiQwkXpwTmZOVAmIXW2-163" value="isDone: Boolean" style="text;strokeColor=none;fillColor=none;align=left;verticalAlign=middle;spacingLeft=4;spacingRight=4;overflow=hidden;points=[[0,0.5],[1,0.5]];portConstraint=eastwest;rotatable=0;rounded=0;" vertex="1" parent="5OiQwkXpwTmZOVAmIXW2-146">
          <mxGeometry y="210" width="180" height="30" as="geometry" />
        </mxCell>
        <mxCell id="h9yrDQvfIrGnZo1wYAG7-128" value="Performance: Double" style="text;strokeColor=none;fillColor=none;align=left;verticalAlign=middle;spacingLeft=4;spacingRight=4;overflow=hidden;points=[[0,0.5],[1,0.5]];portConstraint=eastwest;rotatable=0;rounded=0;" vertex="1" parent="5OiQwkXpwTmZOVAmIXW2-146">
          <mxGeometry y="240" width="180" height="30" as="geometry" />
        </mxCell>
        <mxCell id="h9yrDQvfIrGnZo1wYAG7-155" style="edgeStyle=orthogonalEdgeStyle;rounded=0;orthogonalLoop=1;jettySize=auto;html=1;entryX=0.5;entryY=1;entryDx=0;entryDy=0;" edge="1" parent="WIyWlLk6GJQsqaUBKTNV-1" source="5OiQwkXpwTmZOVAmIXW2-165" target="5OiQwkXpwTmZOVAmIXW2-180">
          <mxGeometry relative="1" as="geometry" />
        </mxCell>
        <mxCell id="5OiQwkXpwTmZOVAmIXW2-165" value="WorkoutHistory" style="swimlane;fontStyle=0;childLayout=stackLayout;horizontal=1;startSize=30;horizontalStack=0;resizeParent=1;resizeParentMax=0;resizeLast=0;collapsible=1;marginBottom=0;metaEdit=0;treeFolding=0;treeMoving=0;enumerate=0;comic=0;rounded=0;fillColor=#6d8764;fontColor=#ffffff;strokeColor=#3A5431;" vertex="1" parent="WIyWlLk6GJQsqaUBKTNV-1">
          <mxGeometry x="660" y="745" width="160" height="240" as="geometry">
            <mxRectangle x="610" y="805" width="70" height="30" as="alternateBounds" />
          </mxGeometry>
        </mxCell>
        <mxCell id="5OiQwkXpwTmZOVAmIXW2-166" value="WorkoutHistoryId: Integer" style="text;strokeColor=none;fillColor=none;align=left;verticalAlign=middle;spacingLeft=4;spacingRight=4;overflow=hidden;points=[[0,0.5],[1,0.5]];portConstraint=eastwest;rotatable=0;rounded=0;" vertex="1" parent="5OiQwkXpwTmZOVAmIXW2-165">
          <mxGeometry y="30" width="160" height="30" as="geometry" />
        </mxCell>
        <mxCell id="5OiQwkXpwTmZOVAmIXW2-167" value="WorkoutPackageId: integer" style="text;strokeColor=none;fillColor=none;align=left;verticalAlign=middle;spacingLeft=4;spacingRight=4;overflow=hidden;points=[[0,0.5],[1,0.5]];portConstraint=eastwest;rotatable=0;rounded=0;" vertex="1" parent="5OiQwkXpwTmZOVAmIXW2-165">
          <mxGeometry y="60" width="160" height="30" as="geometry" />
        </mxCell>
        <mxCell id="5OiQwkXpwTmZOVAmIXW2-168" value="Date: Date" style="text;strokeColor=none;fillColor=none;align=left;verticalAlign=middle;spacingLeft=4;spacingRight=4;overflow=hidden;points=[[0,0.5],[1,0.5]];portConstraint=eastwest;rotatable=0;rounded=0;" vertex="1" parent="5OiQwkXpwTmZOVAmIXW2-165">
          <mxGeometry y="90" width="160" height="30" as="geometry" />
        </mxCell>
        <mxCell id="5OiQwkXpwTmZOVAmIXW2-169" value="Type: String" style="text;strokeColor=none;fillColor=none;align=left;verticalAlign=middle;spacingLeft=4;spacingRight=4;overflow=hidden;points=[[0,0.5],[1,0.5]];portConstraint=eastwest;rotatable=0;rounded=0;" vertex="1" parent="5OiQwkXpwTmZOVAmIXW2-165">
          <mxGeometry y="120" width="160" height="30" as="geometry" />
        </mxCell>
        <mxCell id="5OiQwkXpwTmZOVAmIXW2-170" value="Goal: String" style="text;strokeColor=none;fillColor=none;align=left;verticalAlign=middle;spacingLeft=4;spacingRight=4;overflow=hidden;points=[[0,0.5],[1,0.5]];portConstraint=eastwest;rotatable=0;rounded=0;" vertex="1" parent="5OiQwkXpwTmZOVAmIXW2-165">
          <mxGeometry y="150" width="160" height="30" as="geometry" />
        </mxCell>
        <mxCell id="5OiQwkXpwTmZOVAmIXW2-171" value="isDone: Boolean" style="text;strokeColor=none;fillColor=none;align=left;verticalAlign=middle;spacingLeft=4;spacingRight=4;overflow=hidden;points=[[0,0.5],[1,0.5]];portConstraint=eastwest;rotatable=0;rounded=0;" vertex="1" parent="5OiQwkXpwTmZOVAmIXW2-165">
          <mxGeometry y="180" width="160" height="30" as="geometry" />
        </mxCell>
        <mxCell id="5OiQwkXpwTmZOVAmIXW2-172" value="CalBurnRation: Double" style="text;strokeColor=none;fillColor=none;align=left;verticalAlign=middle;spacingLeft=4;spacingRight=4;overflow=hidden;points=[[0,0.5],[1,0.5]];portConstraint=eastwest;rotatable=0;rounded=0;" vertex="1" parent="5OiQwkXpwTmZOVAmIXW2-165">
          <mxGeometry y="210" width="160" height="30" as="geometry" />
        </mxCell>
        <mxCell id="h9yrDQvfIrGnZo1wYAG7-140" style="edgeStyle=orthogonalEdgeStyle;rounded=0;orthogonalLoop=1;jettySize=auto;html=1;" edge="1" parent="WIyWlLk6GJQsqaUBKTNV-1" source="5OiQwkXpwTmZOVAmIXW2-177" target="5OiQwkXpwTmZOVAmIXW2-165">
          <mxGeometry relative="1" as="geometry" />
        </mxCell>
        <mxCell id="5OiQwkXpwTmZOVAmIXW2-177" value="Has" style="rhombus;whiteSpace=wrap;html=1;comic=0;startSize=30;rounded=0;fillColor=#6d8764;fontColor=#ffffff;strokeColor=#3A5431;" vertex="1" parent="WIyWlLk6GJQsqaUBKTNV-1">
          <mxGeometry x="90" y="1090" width="80" height="80" as="geometry" />
        </mxCell>
        <mxCell id="5OiQwkXpwTmZOVAmIXW2-319" style="edgeStyle=orthogonalEdgeStyle;rounded=0;orthogonalLoop=1;jettySize=auto;html=1;exitX=0;exitY=0.5;exitDx=0;exitDy=0;entryX=0;entryY=0;entryDx=0;entryDy=0;" edge="1" parent="WIyWlLk6GJQsqaUBKTNV-1" source="5OiQwkXpwTmZOVAmIXW2-180" target="5OiQwkXpwTmZOVAmIXW2-50">
          <mxGeometry relative="1" as="geometry">
            <mxPoint x="730" y="370" as="targetPoint" />
          </mxGeometry>
        </mxCell>
        <mxCell id="5OiQwkXpwTmZOVAmIXW2-180" value="Focused On" style="rhombus;whiteSpace=wrap;html=1;comic=0;startSize=30;rounded=0;fillColor=#6d8764;fontColor=#ffffff;strokeColor=#3A5431;" vertex="1" parent="WIyWlLk6GJQsqaUBKTNV-1">
          <mxGeometry x="540" y="535" width="80" height="80" as="geometry" />
        </mxCell>
        <mxCell id="5OiQwkXpwTmZOVAmIXW2-193" style="edgeStyle=orthogonalEdgeStyle;rounded=0;orthogonalLoop=1;jettySize=auto;html=1;entryX=0.5;entryY=0;entryDx=0;entryDy=0;" edge="1" parent="WIyWlLk6GJQsqaUBKTNV-1" source="5OiQwkXpwTmZOVAmIXW2-186" target="5OiQwkXpwTmZOVAmIXW2-189">
          <mxGeometry relative="1" as="geometry" />
        </mxCell>
        <mxCell id="5OiQwkXpwTmZOVAmIXW2-186" value="Uses" style="rhombus;whiteSpace=wrap;html=1;comic=0;startSize=30;rounded=0;fillColor=#6d8764;fontColor=#ffffff;strokeColor=#3A5431;" vertex="1" parent="WIyWlLk6GJQsqaUBKTNV-1">
          <mxGeometry x="1780" y="210" width="80" height="70" as="geometry" />
        </mxCell>
        <mxCell id="5OiQwkXpwTmZOVAmIXW2-188" style="edgeStyle=orthogonalEdgeStyle;rounded=0;orthogonalLoop=1;jettySize=auto;html=1;" edge="1" parent="WIyWlLk6GJQsqaUBKTNV-1" source="5OiQwkXpwTmZOVAmIXW2-140" target="5OiQwkXpwTmZOVAmIXW2-186">
          <mxGeometry relative="1" as="geometry" />
        </mxCell>
        <mxCell id="5OiQwkXpwTmZOVAmIXW2-189" value="Equipment" style="swimlane;fontStyle=0;childLayout=stackLayout;horizontal=1;startSize=30;horizontalStack=0;resizeParent=1;resizeParentMax=0;resizeLast=0;collapsible=1;marginBottom=0;metaEdit=0;treeFolding=0;treeMoving=0;enumerate=0;comic=0;rounded=0;fillColor=#6d8764;fontColor=#ffffff;strokeColor=#3A5431;" vertex="1" parent="WIyWlLk6GJQsqaUBKTNV-1">
          <mxGeometry x="1920" y="265" width="140" height="90" as="geometry">
            <mxRectangle x="80" y="190" width="70" height="30" as="alternateBounds" />
          </mxGeometry>
        </mxCell>
        <mxCell id="5OiQwkXpwTmZOVAmIXW2-190" value="ID: Integer" style="text;strokeColor=none;fillColor=none;align=left;verticalAlign=middle;spacingLeft=4;spacingRight=4;overflow=hidden;points=[[0,0.5],[1,0.5]];portConstraint=eastwest;rotatable=0;rounded=0;" vertex="1" parent="5OiQwkXpwTmZOVAmIXW2-189">
          <mxGeometry y="30" width="140" height="30" as="geometry" />
        </mxCell>
        <mxCell id="5OiQwkXpwTmZOVAmIXW2-191" value="Name: String" style="text;strokeColor=none;fillColor=none;align=left;verticalAlign=middle;spacingLeft=4;spacingRight=4;overflow=hidden;points=[[0,0.5],[1,0.5]];portConstraint=eastwest;rotatable=0;rounded=0;" vertex="1" parent="5OiQwkXpwTmZOVAmIXW2-189">
          <mxGeometry y="60" width="140" height="30" as="geometry" />
        </mxCell>
        <mxCell id="h9yrDQvfIrGnZo1wYAG7-154" style="edgeStyle=orthogonalEdgeStyle;rounded=0;orthogonalLoop=1;jettySize=auto;html=1;entryX=0.5;entryY=0;entryDx=0;entryDy=0;" edge="1" parent="WIyWlLk6GJQsqaUBKTNV-1" source="5OiQwkXpwTmZOVAmIXW2-194" target="5OiQwkXpwTmZOVAmIXW2-189">
          <mxGeometry relative="1" as="geometry" />
        </mxCell>
        <mxCell id="5OiQwkXpwTmZOVAmIXW2-194" value="Has" style="rhombus;whiteSpace=wrap;html=1;comic=0;startSize=30;rounded=0;fillColor=#e51400;strokeColor=#B20000;fontColor=#ffffff;" vertex="1" parent="WIyWlLk6GJQsqaUBKTNV-1">
          <mxGeometry x="850" y="10" width="80" height="70" as="geometry" />
        </mxCell>
        <mxCell id="5OiQwkXpwTmZOVAmIXW2-282" value="" style="edgeStyle=orthogonalEdgeStyle;rounded=0;orthogonalLoop=1;jettySize=auto;html=1;exitX=0.25;exitY=0;exitDx=0;exitDy=0;" edge="1" parent="WIyWlLk6GJQsqaUBKTNV-1" source="pLFZM72usyoBuc8QHLye-0" target="5OiQwkXpwTmZOVAmIXW2-241">
          <mxGeometry relative="1" as="geometry" />
        </mxCell>
        <mxCell id="h9yrDQvfIrGnZo1wYAG7-52" style="edgeStyle=orthogonalEdgeStyle;rounded=0;orthogonalLoop=1;jettySize=auto;html=1;entryX=1;entryY=0.5;entryDx=0;entryDy=0;exitX=0.493;exitY=1.01;exitDx=0;exitDy=0;exitPerimeter=0;" edge="1" parent="WIyWlLk6GJQsqaUBKTNV-1" source="h9yrDQvfIrGnZo1wYAG7-0" target="5OiQwkXpwTmZOVAmIXW2-233">
          <mxGeometry relative="1" as="geometry">
            <Array as="points">
              <mxPoint x="-111" y="300" />
              <mxPoint x="-380" y="300" />
            </Array>
          </mxGeometry>
        </mxCell>
        <mxCell id="h9yrDQvfIrGnZo1wYAG7-55" style="edgeStyle=orthogonalEdgeStyle;rounded=0;orthogonalLoop=1;jettySize=auto;html=1;entryX=0;entryY=0.5;entryDx=0;entryDy=0;" edge="1" parent="WIyWlLk6GJQsqaUBKTNV-1" source="5OiQwkXpwTmZOVAmIXW2-197" target="5OiQwkXpwTmZOVAmIXW2-298">
          <mxGeometry relative="1" as="geometry" />
        </mxCell>
        <mxCell id="5OiQwkXpwTmZOVAmIXW2-197" value="client" style="swimlane;fontStyle=0;childLayout=stackLayout;horizontal=1;startSize=30;horizontalStack=0;resizeParent=1;resizeParentMax=0;resizeLast=0;collapsible=1;marginBottom=0;metaEdit=0;treeFolding=0;treeMoving=0;enumerate=0;comic=0;rounded=0;fillColor=#f8cecc;strokeColor=#b85450;" vertex="1" parent="WIyWlLk6GJQsqaUBKTNV-1">
          <mxGeometry x="-180" y="85" width="140" height="180" as="geometry">
            <mxRectangle x="-330" y="410" width="70" height="30" as="alternateBounds" />
          </mxGeometry>
        </mxCell>
        <mxCell id="5OiQwkXpwTmZOVAmIXW2-203" value="Height: Integer" style="text;strokeColor=none;fillColor=none;align=left;verticalAlign=middle;spacingLeft=4;spacingRight=4;overflow=hidden;points=[[0,0.5],[1,0.5]];portConstraint=eastwest;rotatable=0;rounded=0;" vertex="1" parent="5OiQwkXpwTmZOVAmIXW2-197">
          <mxGeometry y="30" width="140" height="30" as="geometry" />
        </mxCell>
        <mxCell id="5OiQwkXpwTmZOVAmIXW2-204" value="Weight: Integer" style="text;strokeColor=none;fillColor=none;align=left;verticalAlign=middle;spacingLeft=4;spacingRight=4;overflow=hidden;points=[[0,0.5],[1,0.5]];portConstraint=eastwest;rotatable=0;rounded=0;" vertex="1" parent="5OiQwkXpwTmZOVAmIXW2-197">
          <mxGeometry y="60" width="140" height="30" as="geometry" />
        </mxCell>
        <mxCell id="5OiQwkXpwTmZOVAmIXW2-205" value="BMI: Integer" style="text;strokeColor=none;fillColor=none;align=left;verticalAlign=middle;spacingLeft=4;spacingRight=4;overflow=hidden;points=[[0,0.5],[1,0.5]];portConstraint=eastwest;rotatable=0;rounded=0;" vertex="1" parent="5OiQwkXpwTmZOVAmIXW2-197">
          <mxGeometry y="90" width="140" height="30" as="geometry" />
        </mxCell>
        <mxCell id="5OiQwkXpwTmZOVAmIXW2-206" value="Goal: Integer" style="text;strokeColor=none;fillColor=none;align=left;verticalAlign=middle;spacingLeft=4;spacingRight=4;overflow=hidden;points=[[0,0.5],[1,0.5]];portConstraint=eastwest;rotatable=0;rounded=0;" vertex="1" parent="5OiQwkXpwTmZOVAmIXW2-197">
          <mxGeometry y="120" width="140" height="30" as="geometry" />
        </mxCell>
        <mxCell id="h9yrDQvfIrGnZo1wYAG7-0" value="Streak: Int" style="text;strokeColor=none;fillColor=none;align=left;verticalAlign=middle;spacingLeft=4;spacingRight=4;overflow=hidden;points=[[0,0.5],[1,0.5]];portConstraint=eastwest;rotatable=0;rounded=0;" vertex="1" parent="5OiQwkXpwTmZOVAmIXW2-197">
          <mxGeometry y="150" width="140" height="30" as="geometry" />
        </mxCell>
        <mxCell id="h9yrDQvfIrGnZo1wYAG7-37" style="edgeStyle=orthogonalEdgeStyle;rounded=0;orthogonalLoop=1;jettySize=auto;html=1;entryX=1;entryY=0.5;entryDx=0;entryDy=0;" edge="1" parent="WIyWlLk6GJQsqaUBKTNV-1" source="5OiQwkXpwTmZOVAmIXW2-207" target="5OiQwkXpwTmZOVAmIXW2-231">
          <mxGeometry relative="1" as="geometry" />
        </mxCell>
        <mxCell id="5OiQwkXpwTmZOVAmIXW2-207" value="Moderator" style="swimlane;fontStyle=0;childLayout=stackLayout;horizontal=1;startSize=30;horizontalStack=0;resizeParent=1;resizeParentMax=0;resizeLast=0;collapsible=1;marginBottom=0;metaEdit=0;treeFolding=0;treeMoving=0;enumerate=0;comic=0;rounded=0;fillColor=#f8cecc;strokeColor=#b85450;" vertex="1" parent="WIyWlLk6GJQsqaUBKTNV-1">
          <mxGeometry x="-359" y="500" width="140" height="60" as="geometry">
            <mxRectangle x="-330" y="470" width="70" height="30" as="alternateBounds" />
          </mxGeometry>
        </mxCell>
        <mxCell id="5OiQwkXpwTmZOVAmIXW2-227" value="ClearanceLevel: Integer" style="text;strokeColor=none;fillColor=none;align=left;verticalAlign=middle;spacingLeft=4;spacingRight=4;overflow=hidden;points=[[0,0.5],[1,0.5]];portConstraint=eastwest;rotatable=0;rounded=0;" vertex="1" parent="5OiQwkXpwTmZOVAmIXW2-207">
          <mxGeometry y="30" width="140" height="30" as="geometry" />
        </mxCell>
        <mxCell id="5OiQwkXpwTmZOVAmIXW2-295" style="edgeStyle=orthogonalEdgeStyle;rounded=1;orthogonalLoop=1;jettySize=auto;html=1;entryX=0.5;entryY=0;entryDx=0;entryDy=0;fillColor=#0050ef;strokeColor=#001DBC;" edge="1" parent="WIyWlLk6GJQsqaUBKTNV-1" source="5OiQwkXpwTmZOVAmIXW2-241" target="5OiQwkXpwTmZOVAmIXW2-244">
          <mxGeometry relative="1" as="geometry" />
        </mxCell>
        <mxCell id="h9yrDQvfIrGnZo1wYAG7-222" style="edgeStyle=elbowEdgeStyle;rounded=1;orthogonalLoop=1;jettySize=auto;html=1;entryX=0;entryY=0;entryDx=0;entryDy=0;fillColor=#0050ef;strokeColor=#001DBC;" edge="1" parent="WIyWlLk6GJQsqaUBKTNV-1" source="5OiQwkXpwTmZOVAmIXW2-241" target="h9yrDQvfIrGnZo1wYAG7-215">
          <mxGeometry relative="1" as="geometry">
            <Array as="points">
              <mxPoint x="-220" y="-310" />
              <mxPoint x="-210" y="-290" />
            </Array>
          </mxGeometry>
        </mxCell>
        <mxCell id="5OiQwkXpwTmZOVAmIXW2-241" value="Has&lt;br&gt;Both" style="rhombus;whiteSpace=wrap;html=1;comic=0;startSize=30;rounded=0;fillColor=#a20025;fontColor=#ffffff;strokeColor=#6F0000;" vertex="1" parent="WIyWlLk6GJQsqaUBKTNV-1">
          <mxGeometry x="-260" y="-120" width="80" height="70" as="geometry" />
        </mxCell>
        <mxCell id="5OiQwkXpwTmZOVAmIXW2-254" value="" style="edgeStyle=orthogonalEdgeStyle;rounded=0;orthogonalLoop=1;jettySize=auto;html=1;" edge="1" parent="WIyWlLk6GJQsqaUBKTNV-1" source="5OiQwkXpwTmZOVAmIXW2-244" target="5OiQwkXpwTmZOVAmIXW2-253">
          <mxGeometry relative="1" as="geometry" />
        </mxCell>
        <mxCell id="h9yrDQvfIrGnZo1wYAG7-208" style="edgeStyle=orthogonalEdgeStyle;rounded=0;orthogonalLoop=1;jettySize=auto;html=1;entryX=0;entryY=0.5;entryDx=0;entryDy=0;" edge="1" parent="WIyWlLk6GJQsqaUBKTNV-1" source="5OiQwkXpwTmZOVAmIXW2-244" target="h9yrDQvfIrGnZo1wYAG7-207">
          <mxGeometry relative="1" as="geometry" />
        </mxCell>
        <mxCell id="5OiQwkXpwTmZOVAmIXW2-244" value="Achievement" style="swimlane;fontStyle=0;childLayout=stackLayout;horizontal=1;startSize=30;horizontalStack=0;resizeParent=1;resizeParentMax=0;resizeLast=0;collapsible=1;marginBottom=0;metaEdit=0;treeFolding=0;treeMoving=0;enumerate=0;comic=0;rounded=0;fillColor=#76608a;fontColor=#ffffff;strokeColor=#432D57;" vertex="1" parent="WIyWlLk6GJQsqaUBKTNV-1">
          <mxGeometry x="-70" y="-195" width="140" height="120" as="geometry">
            <mxRectangle x="80" y="190" width="70" height="30" as="alternateBounds" />
          </mxGeometry>
        </mxCell>
        <mxCell id="5OiQwkXpwTmZOVAmIXW2-245" value="Id: Integer" style="text;strokeColor=none;fillColor=none;align=left;verticalAlign=middle;spacingLeft=4;spacingRight=4;overflow=hidden;points=[[0,0.5],[1,0.5]];portConstraint=eastwest;rotatable=0;rounded=0;" vertex="1" parent="5OiQwkXpwTmZOVAmIXW2-244">
          <mxGeometry y="30" width="140" height="30" as="geometry" />
        </mxCell>
        <mxCell id="5OiQwkXpwTmZOVAmIXW2-246" value="Name: String" style="text;strokeColor=none;fillColor=none;align=left;verticalAlign=middle;spacingLeft=4;spacingRight=4;overflow=hidden;points=[[0,0.5],[1,0.5]];portConstraint=eastwest;rotatable=0;rounded=0;" vertex="1" parent="5OiQwkXpwTmZOVAmIXW2-244">
          <mxGeometry y="60" width="140" height="30" as="geometry" />
        </mxCell>
        <mxCell id="5OiQwkXpwTmZOVAmIXW2-284" value="FinishedOn:Date" style="text;strokeColor=none;fillColor=none;align=left;verticalAlign=middle;spacingLeft=4;spacingRight=4;overflow=hidden;points=[[0,0.5],[1,0.5]];portConstraint=eastwest;rotatable=0;rounded=0;" vertex="1" parent="5OiQwkXpwTmZOVAmIXW2-244">
          <mxGeometry y="90" width="140" height="30" as="geometry" />
        </mxCell>
        <mxCell id="5OiQwkXpwTmZOVAmIXW2-272" style="edgeStyle=orthogonalEdgeStyle;rounded=0;orthogonalLoop=1;jettySize=auto;html=1;entryX=0.5;entryY=0;entryDx=0;entryDy=0;" edge="1" parent="WIyWlLk6GJQsqaUBKTNV-1" source="5OiQwkXpwTmZOVAmIXW2-253" target="5OiQwkXpwTmZOVAmIXW2-255">
          <mxGeometry relative="1" as="geometry" />
        </mxCell>
        <mxCell id="5OiQwkXpwTmZOVAmIXW2-253" value="Comes From" style="rhombus;whiteSpace=wrap;html=1;fontStyle=0;startSize=30;comic=0;rounded=0;fillColor=#76608a;fontColor=#ffffff;strokeColor=#432D57;" vertex="1" parent="WIyWlLk6GJQsqaUBKTNV-1">
          <mxGeometry x="200" y="-175" width="80" height="80" as="geometry" />
        </mxCell>
        <mxCell id="5OiQwkXpwTmZOVAmIXW2-266" style="edgeStyle=orthogonalEdgeStyle;rounded=0;orthogonalLoop=1;jettySize=auto;html=1;entryX=0.5;entryY=0;entryDx=0;entryDy=0;" edge="1" parent="WIyWlLk6GJQsqaUBKTNV-1" source="5OiQwkXpwTmZOVAmIXW2-255" target="5OiQwkXpwTmZOVAmIXW2-65">
          <mxGeometry relative="1" as="geometry" />
        </mxCell>
        <mxCell id="5OiQwkXpwTmZOVAmIXW2-255" value="Challenge" style="swimlane;fontStyle=0;childLayout=stackLayout;horizontal=1;startSize=30;horizontalStack=0;resizeParent=1;resizeParentMax=0;resizeLast=0;collapsible=1;marginBottom=0;metaEdit=0;treeFolding=0;treeMoving=0;enumerate=0;comic=0;rounded=0;fillColor=#76608a;fontColor=#ffffff;strokeColor=#432D57;" vertex="1" parent="WIyWlLk6GJQsqaUBKTNV-1">
          <mxGeometry x="1171" y="-190" width="140" height="210" as="geometry">
            <mxRectangle x="80" y="190" width="70" height="30" as="alternateBounds" />
          </mxGeometry>
        </mxCell>
        <mxCell id="5OiQwkXpwTmZOVAmIXW2-256" value="Id: Integer" style="text;strokeColor=none;fillColor=none;align=left;verticalAlign=middle;spacingLeft=4;spacingRight=4;overflow=hidden;points=[[0,0.5],[1,0.5]];portConstraint=eastwest;rotatable=0;rounded=0;" vertex="1" parent="5OiQwkXpwTmZOVAmIXW2-255">
          <mxGeometry y="30" width="140" height="30" as="geometry" />
        </mxCell>
        <mxCell id="5OiQwkXpwTmZOVAmIXW2-257" value="Name: String" style="text;strokeColor=none;fillColor=none;align=left;verticalAlign=middle;spacingLeft=4;spacingRight=4;overflow=hidden;points=[[0,0.5],[1,0.5]];portConstraint=eastwest;rotatable=0;rounded=0;" vertex="1" parent="5OiQwkXpwTmZOVAmIXW2-255">
          <mxGeometry y="60" width="140" height="30" as="geometry" />
        </mxCell>
        <mxCell id="5OiQwkXpwTmZOVAmIXW2-258" value="StartDate: Date" style="text;strokeColor=none;fillColor=none;align=left;verticalAlign=middle;spacingLeft=4;spacingRight=4;overflow=hidden;points=[[0,0.5],[1,0.5]];portConstraint=eastwest;rotatable=0;rounded=0;" vertex="1" parent="5OiQwkXpwTmZOVAmIXW2-255">
          <mxGeometry y="90" width="140" height="30" as="geometry" />
        </mxCell>
        <mxCell id="5OiQwkXpwTmZOVAmIXW2-259" value="EndDate: Date" style="text;strokeColor=none;fillColor=none;align=left;verticalAlign=middle;spacingLeft=4;spacingRight=4;overflow=hidden;points=[[0,0.5],[1,0.5]];portConstraint=eastwest;rotatable=0;rounded=0;" vertex="1" parent="5OiQwkXpwTmZOVAmIXW2-255">
          <mxGeometry y="120" width="140" height="30" as="geometry" />
        </mxCell>
        <mxCell id="5OiQwkXpwTmZOVAmIXW2-260" value="Points: Integer" style="text;strokeColor=none;fillColor=none;align=left;verticalAlign=middle;spacingLeft=4;spacingRight=4;overflow=hidden;points=[[0,0.5],[1,0.5]];portConstraint=eastwest;rotatable=0;rounded=0;" vertex="1" parent="5OiQwkXpwTmZOVAmIXW2-255">
          <mxGeometry y="150" width="140" height="30" as="geometry" />
        </mxCell>
        <mxCell id="5OiQwkXpwTmZOVAmIXW2-267" value="Multiplier: Integer?" style="text;strokeColor=none;fillColor=none;align=left;verticalAlign=middle;spacingLeft=4;spacingRight=4;overflow=hidden;points=[[0,0.5],[1,0.5]];portConstraint=eastwest;rotatable=0;rounded=0;" vertex="1" parent="5OiQwkXpwTmZOVAmIXW2-255">
          <mxGeometry y="180" width="140" height="30" as="geometry" />
        </mxCell>
        <mxCell id="h9yrDQvfIrGnZo1wYAG7-213" style="edgeStyle=orthogonalEdgeStyle;rounded=0;orthogonalLoop=1;jettySize=auto;html=1;entryX=0;entryY=0.5;entryDx=0;entryDy=0;" edge="1" parent="WIyWlLk6GJQsqaUBKTNV-1" source="5OiQwkXpwTmZOVAmIXW2-289" target="h9yrDQvfIrGnZo1wYAG7-212">
          <mxGeometry relative="1" as="geometry" />
        </mxCell>
        <mxCell id="5OiQwkXpwTmZOVAmIXW2-289" value="Badge" style="swimlane;fontStyle=0;childLayout=stackLayout;horizontal=1;startSize=30;horizontalStack=0;resizeParent=1;resizeParentMax=0;resizeLast=0;collapsible=1;marginBottom=0;metaEdit=0;treeFolding=0;treeMoving=0;enumerate=0;comic=0;rounded=0;fillColor=#76608a;fontColor=#ffffff;strokeColor=#432D57;" vertex="1" parent="WIyWlLk6GJQsqaUBKTNV-1">
          <mxGeometry x="370" y="-410" width="140" height="90" as="geometry">
            <mxRectangle x="80" y="190" width="70" height="30" as="alternateBounds" />
          </mxGeometry>
        </mxCell>
        <mxCell id="5OiQwkXpwTmZOVAmIXW2-290" value="BadgeId: ID" style="text;strokeColor=none;fillColor=none;align=left;verticalAlign=middle;spacingLeft=4;spacingRight=4;overflow=hidden;points=[[0,0.5],[1,0.5]];portConstraint=eastwest;rotatable=0;rounded=0;" vertex="1" parent="5OiQwkXpwTmZOVAmIXW2-289">
          <mxGeometry y="30" width="140" height="30" as="geometry" />
        </mxCell>
        <mxCell id="5OiQwkXpwTmZOVAmIXW2-292" value="BadgeName: String" style="text;strokeColor=none;fillColor=none;align=left;verticalAlign=middle;spacingLeft=4;spacingRight=4;overflow=hidden;points=[[0,0.5],[1,0.5]];portConstraint=eastwest;rotatable=0;rounded=0;" vertex="1" parent="5OiQwkXpwTmZOVAmIXW2-289">
          <mxGeometry y="60" width="140" height="30" as="geometry" />
        </mxCell>
        <mxCell id="5OiQwkXpwTmZOVAmIXW2-349" style="edgeStyle=elbowEdgeStyle;rounded=0;orthogonalLoop=1;jettySize=auto;html=1;entryX=0.5;entryY=0;entryDx=0;entryDy=0;exitX=0.5;exitY=1;exitDx=0;exitDy=0;" edge="1" parent="WIyWlLk6GJQsqaUBKTNV-1" source="5OiQwkXpwTmZOVAmIXW2-298" target="5OiQwkXpwTmZOVAmIXW2-350">
          <mxGeometry relative="1" as="geometry">
            <mxPoint x="260.00000000000045" y="260" as="targetPoint" />
          </mxGeometry>
        </mxCell>
        <mxCell id="5OiQwkXpwTmZOVAmIXW2-298" value="Wants, EitherOne" style="rhombus;whiteSpace=wrap;html=1;comic=0;startSize=30;rounded=0;fillColor=#f8cecc;strokeColor=#b85450;" vertex="1" parent="WIyWlLk6GJQsqaUBKTNV-1">
          <mxGeometry x="70" y="140" width="80" height="70" as="geometry" />
        </mxCell>
        <mxCell id="h9yrDQvfIrGnZo1wYAG7-107" style="edgeStyle=orthogonalEdgeStyle;curved=1;rounded=0;orthogonalLoop=1;jettySize=auto;html=1;entryX=0;entryY=0.5;entryDx=0;entryDy=0;" edge="1" parent="WIyWlLk6GJQsqaUBKTNV-1" source="5OiQwkXpwTmZOVAmIXW2-321" target="h9yrDQvfIrGnZo1wYAG7-106">
          <mxGeometry relative="1" as="geometry" />
        </mxCell>
        <mxCell id="h9yrDQvfIrGnZo1wYAG7-165" style="edgeStyle=orthogonalEdgeStyle;rounded=0;orthogonalLoop=1;jettySize=auto;html=1;" edge="1" parent="WIyWlLk6GJQsqaUBKTNV-1" source="5OiQwkXpwTmZOVAmIXW2-321" target="h9yrDQvfIrGnZo1wYAG7-164">
          <mxGeometry relative="1" as="geometry" />
        </mxCell>
        <mxCell id="5OiQwkXpwTmZOVAmIXW2-321" value="MealPackage" style="swimlane;fontStyle=0;childLayout=stackLayout;horizontal=1;startSize=30;horizontalStack=0;resizeParent=1;resizeParentMax=0;resizeLast=0;collapsible=1;marginBottom=0;metaEdit=0;treeFolding=0;treeMoving=0;enumerate=0;comic=0;rounded=0;fillColor=#e3c800;fontColor=#000000;strokeColor=#B09500;" vertex="1" parent="WIyWlLk6GJQsqaUBKTNV-1">
          <mxGeometry x="1141" y="430" width="170" height="270" as="geometry">
            <mxRectangle x="80" y="190" width="70" height="30" as="alternateBounds" />
          </mxGeometry>
        </mxCell>
        <mxCell id="5OiQwkXpwTmZOVAmIXW2-322" value="ID: Integer" style="text;strokeColor=none;fillColor=none;align=left;verticalAlign=middle;spacingLeft=4;spacingRight=4;overflow=hidden;points=[[0,0.5],[1,0.5]];portConstraint=eastwest;rotatable=0;rounded=0;" vertex="1" parent="5OiQwkXpwTmZOVAmIXW2-321">
          <mxGeometry y="30" width="170" height="30" as="geometry" />
        </mxCell>
        <mxCell id="5OiQwkXpwTmZOVAmIXW2-323" value="Name: String" style="text;strokeColor=none;fillColor=none;align=left;verticalAlign=middle;spacingLeft=4;spacingRight=4;overflow=hidden;points=[[0,0.5],[1,0.5]];portConstraint=eastwest;rotatable=0;rounded=0;" vertex="1" parent="5OiQwkXpwTmZOVAmIXW2-321">
          <mxGeometry y="60" width="170" height="30" as="geometry" />
        </mxCell>
        <mxCell id="5OiQwkXpwTmZOVAmIXW2-324" value="DietType: String" style="text;strokeColor=none;fillColor=none;align=left;verticalAlign=middle;spacingLeft=4;spacingRight=4;overflow=hidden;points=[[0,0.5],[1,0.5]];portConstraint=eastwest;rotatable=0;rounded=0;" vertex="1" parent="5OiQwkXpwTmZOVAmIXW2-321">
          <mxGeometry y="90" width="170" height="30" as="geometry" />
        </mxCell>
        <mxCell id="5OiQwkXpwTmZOVAmIXW2-325" value="AssignedBy: Integer (Coach)" style="text;strokeColor=none;fillColor=none;align=left;verticalAlign=middle;spacingLeft=4;spacingRight=4;overflow=hidden;points=[[0,0.5],[1,0.5]];portConstraint=eastwest;rotatable=0;rounded=0;" vertex="1" parent="5OiQwkXpwTmZOVAmIXW2-321">
          <mxGeometry y="120" width="170" height="30" as="geometry" />
        </mxCell>
        <mxCell id="5OiQwkXpwTmZOVAmIXW2-330" value="StartDate: Date" style="text;strokeColor=none;fillColor=none;align=left;verticalAlign=middle;spacingLeft=4;spacingRight=4;overflow=hidden;points=[[0,0.5],[1,0.5]];portConstraint=eastwest;rotatable=0;rounded=0;" vertex="1" parent="5OiQwkXpwTmZOVAmIXW2-321">
          <mxGeometry y="150" width="170" height="30" as="geometry" />
        </mxCell>
        <mxCell id="5OiQwkXpwTmZOVAmIXW2-331" value="EndDate: Date" style="text;strokeColor=none;fillColor=none;align=left;verticalAlign=middle;spacingLeft=4;spacingRight=4;overflow=hidden;points=[[0,0.5],[1,0.5]];portConstraint=eastwest;rotatable=0;rounded=0;" vertex="1" parent="5OiQwkXpwTmZOVAmIXW2-321">
          <mxGeometry y="180" width="170" height="30" as="geometry" />
        </mxCell>
        <mxCell id="5OiQwkXpwTmZOVAmIXW2-335" value="Goal: String(Enum?)" style="text;strokeColor=none;fillColor=none;align=left;verticalAlign=middle;spacingLeft=4;spacingRight=4;overflow=hidden;points=[[0,0.5],[1,0.5]];portConstraint=eastwest;rotatable=0;rounded=0;" vertex="1" parent="5OiQwkXpwTmZOVAmIXW2-321">
          <mxGeometry y="210" width="170" height="30" as="geometry" />
        </mxCell>
        <mxCell id="h9yrDQvfIrGnZo1wYAG7-160" value="AssignedBy: Integer (nullable)" style="text;strokeColor=none;fillColor=none;align=left;verticalAlign=middle;spacingLeft=4;spacingRight=4;overflow=hidden;points=[[0,0.5],[1,0.5]];portConstraint=eastwest;rotatable=0;rounded=0;" vertex="1" parent="5OiQwkXpwTmZOVAmIXW2-321">
          <mxGeometry y="240" width="170" height="30" as="geometry" />
        </mxCell>
        <mxCell id="5OiQwkXpwTmZOVAmIXW2-373" style="edgeStyle=elbowEdgeStyle;rounded=0;orthogonalLoop=1;jettySize=auto;html=1;entryX=0.5;entryY=0;entryDx=0;entryDy=0;" edge="1" parent="WIyWlLk6GJQsqaUBKTNV-1" source="5OiQwkXpwTmZOVAmIXW2-350" target="5OiQwkXpwTmZOVAmIXW2-357">
          <mxGeometry relative="1" as="geometry" />
        </mxCell>
        <mxCell id="5OiQwkXpwTmZOVAmIXW2-350" value="Coach" style="swimlane;fontStyle=0;childLayout=stackLayout;horizontal=1;startSize=30;horizontalStack=0;resizeParent=1;resizeParentMax=0;resizeLast=0;collapsible=1;marginBottom=0;metaEdit=0;treeFolding=0;treeMoving=0;enumerate=0;comic=0;rounded=0;fillColor=#f8cecc;strokeColor=#b85450;" vertex="1" parent="WIyWlLk6GJQsqaUBKTNV-1">
          <mxGeometry x="20" y="255" width="180" height="120" as="geometry">
            <mxRectangle x="-330" y="410" width="70" height="30" as="alternateBounds" />
          </mxGeometry>
        </mxCell>
        <mxCell id="5OiQwkXpwTmZOVAmIXW2-353" value="type: Enum" style="text;strokeColor=none;fillColor=none;align=left;verticalAlign=middle;spacingLeft=4;spacingRight=4;overflow=hidden;points=[[0,0.5],[1,0.5]];portConstraint=eastwest;rotatable=0;rounded=0;" vertex="1" parent="5OiQwkXpwTmZOVAmIXW2-350">
          <mxGeometry y="30" width="180" height="30" as="geometry" />
        </mxCell>
        <mxCell id="5OiQwkXpwTmZOVAmIXW2-355" value="Rank: Integer" style="text;strokeColor=none;fillColor=none;align=left;verticalAlign=middle;spacingLeft=4;spacingRight=4;overflow=hidden;points=[[0,0.5],[1,0.5]];portConstraint=eastwest;rotatable=0;rounded=0;" vertex="1" parent="5OiQwkXpwTmZOVAmIXW2-350">
          <mxGeometry y="60" width="180" height="30" as="geometry" />
        </mxCell>
        <mxCell id="5OiQwkXpwTmZOVAmIXW2-356" value="AmountOfClients: Integer" style="text;strokeColor=none;fillColor=none;align=left;verticalAlign=middle;spacingLeft=4;spacingRight=4;overflow=hidden;points=[[0,0.5],[1,0.5]];portConstraint=eastwest;rotatable=0;rounded=0;" vertex="1" parent="5OiQwkXpwTmZOVAmIXW2-350">
          <mxGeometry y="90" width="180" height="30" as="geometry" />
        </mxCell>
        <mxCell id="5OiQwkXpwTmZOVAmIXW2-359" style="edgeStyle=orthogonalEdgeStyle;rounded=0;orthogonalLoop=1;jettySize=auto;html=1;entryX=0.5;entryY=0;entryDx=0;entryDy=0;" edge="1" parent="WIyWlLk6GJQsqaUBKTNV-1" source="5OiQwkXpwTmZOVAmIXW2-357" target="5OiQwkXpwTmZOVAmIXW2-111">
          <mxGeometry relative="1" as="geometry" />
        </mxCell>
        <mxCell id="5OiQwkXpwTmZOVAmIXW2-357" value="Gives" style="rhombus;whiteSpace=wrap;html=1;comic=0;startSize=30;rounded=0;fillColor=#f8cecc;strokeColor=#b85450;" vertex="1" parent="WIyWlLk6GJQsqaUBKTNV-1">
          <mxGeometry x="70" y="400" width="80" height="70" as="geometry" />
        </mxCell>
        <mxCell id="5OiQwkXpwTmZOVAmIXW2-375" value="2" style="text;html=1;align=center;verticalAlign=middle;resizable=0;points=[];autosize=1;strokeColor=none;fillColor=none;" vertex="1" parent="WIyWlLk6GJQsqaUBKTNV-1">
          <mxGeometry x="110" y="210" width="30" height="30" as="geometry" />
        </mxCell>
        <mxCell id="h9yrDQvfIrGnZo1wYAG7-43" style="edgeStyle=orthogonalEdgeStyle;rounded=1;orthogonalLoop=1;jettySize=auto;html=1;entryX=0.5;entryY=0;entryDx=0;entryDy=0;" edge="1" parent="WIyWlLk6GJQsqaUBKTNV-1" source="h9yrDQvfIrGnZo1wYAG7-5" target="h9yrDQvfIrGnZo1wYAG7-7">
          <mxGeometry relative="1" as="geometry" />
        </mxCell>
        <mxCell id="h9yrDQvfIrGnZo1wYAG7-5" value="Has" style="rhombus;whiteSpace=wrap;html=1;comic=0;startSize=30;rounded=0;fillColor=#a20025;fontColor=#ffffff;strokeColor=#6F0000;" vertex="1" parent="WIyWlLk6GJQsqaUBKTNV-1">
          <mxGeometry x="-670" y="-165" width="80" height="70" as="geometry" />
        </mxCell>
        <mxCell id="h9yrDQvfIrGnZo1wYAG7-13" style="edgeStyle=orthogonalEdgeStyle;rounded=0;orthogonalLoop=1;jettySize=auto;html=1;entryX=0.5;entryY=0;entryDx=0;entryDy=0;" edge="1" parent="WIyWlLk6GJQsqaUBKTNV-1" source="h9yrDQvfIrGnZo1wYAG7-7" target="h9yrDQvfIrGnZo1wYAG7-14">
          <mxGeometry relative="1" as="geometry">
            <mxPoint x="-940" y="-120" as="targetPoint" />
          </mxGeometry>
        </mxCell>
        <mxCell id="h9yrDQvfIrGnZo1wYAG7-7" value="NewsFeed" style="swimlane;fontStyle=0;childLayout=stackLayout;horizontal=1;startSize=30;horizontalStack=0;resizeParent=1;resizeParentMax=0;resizeLast=0;collapsible=1;marginBottom=0;metaEdit=0;treeFolding=0;treeMoving=0;enumerate=0;comic=0;rounded=0;fillColor=#fa6800;fontColor=#000000;strokeColor=#C73500;" vertex="1" parent="WIyWlLk6GJQsqaUBKTNV-1">
          <mxGeometry x="-1010" y="-250" width="140" height="60" as="geometry">
            <mxRectangle x="80" y="190" width="70" height="30" as="alternateBounds" />
          </mxGeometry>
        </mxCell>
        <mxCell id="h9yrDQvfIrGnZo1wYAG7-9" value="Id: Integer" style="text;strokeColor=none;fillColor=none;align=left;verticalAlign=middle;spacingLeft=4;spacingRight=4;overflow=hidden;points=[[0,0.5],[1,0.5]];portConstraint=eastwest;rotatable=0;rounded=0;" vertex="1" parent="h9yrDQvfIrGnZo1wYAG7-7">
          <mxGeometry y="30" width="140" height="30" as="geometry" />
        </mxCell>
        <mxCell id="h9yrDQvfIrGnZo1wYAG7-15" style="edgeStyle=orthogonalEdgeStyle;rounded=0;orthogonalLoop=1;jettySize=auto;html=1;entryX=0.5;entryY=0;entryDx=0;entryDy=0;" edge="1" parent="WIyWlLk6GJQsqaUBKTNV-1" source="h9yrDQvfIrGnZo1wYAG7-14" target="h9yrDQvfIrGnZo1wYAG7-20">
          <mxGeometry relative="1" as="geometry">
            <mxPoint x="-940.0000000000005" y="-10" as="targetPoint" />
          </mxGeometry>
        </mxCell>
        <mxCell id="h9yrDQvfIrGnZo1wYAG7-14" value="Contains" style="rhombus;whiteSpace=wrap;html=1;comic=0;startSize=30;rounded=0;fillColor=#fa6800;fontColor=#000000;strokeColor=#C73500;" vertex="1" parent="WIyWlLk6GJQsqaUBKTNV-1">
          <mxGeometry x="-980" y="-85" width="80" height="70" as="geometry" />
        </mxCell>
        <mxCell id="h9yrDQvfIrGnZo1wYAG7-40" style="edgeStyle=orthogonalEdgeStyle;rounded=0;orthogonalLoop=1;jettySize=auto;html=1;entryX=0;entryY=0.5;entryDx=0;entryDy=0;" edge="1" parent="WIyWlLk6GJQsqaUBKTNV-1" source="h9yrDQvfIrGnZo1wYAG7-20" target="h9yrDQvfIrGnZo1wYAG7-25">
          <mxGeometry relative="1" as="geometry" />
        </mxCell>
        <mxCell id="h9yrDQvfIrGnZo1wYAG7-88" style="edgeStyle=orthogonalEdgeStyle;rounded=0;orthogonalLoop=1;jettySize=auto;html=1;entryX=0.5;entryY=0;entryDx=0;entryDy=0;" edge="1" parent="WIyWlLk6GJQsqaUBKTNV-1" source="h9yrDQvfIrGnZo1wYAG7-20" target="h9yrDQvfIrGnZo1wYAG7-89">
          <mxGeometry relative="1" as="geometry">
            <mxPoint x="-940.0000000000005" y="490" as="targetPoint" />
          </mxGeometry>
        </mxCell>
        <mxCell id="h9yrDQvfIrGnZo1wYAG7-20" value="Post" style="swimlane;fontStyle=0;childLayout=stackLayout;horizontal=1;startSize=30;horizontalStack=0;resizeParent=1;resizeParentMax=0;resizeLast=0;collapsible=1;marginBottom=0;metaEdit=0;treeFolding=0;treeMoving=0;enumerate=0;comic=0;rounded=0;fillColor=#fa6800;fontColor=#000000;strokeColor=#C73500;" vertex="1" parent="WIyWlLk6GJQsqaUBKTNV-1">
          <mxGeometry x="-1170" y="30" width="140" height="180" as="geometry">
            <mxRectangle x="-1010" width="70" height="30" as="alternateBounds" />
          </mxGeometry>
        </mxCell>
        <mxCell id="h9yrDQvfIrGnZo1wYAG7-21" value="Id: Integer" style="text;strokeColor=none;fillColor=none;align=left;verticalAlign=middle;spacingLeft=4;spacingRight=4;overflow=hidden;points=[[0,0.5],[1,0.5]];portConstraint=eastwest;rotatable=0;rounded=0;" vertex="1" parent="h9yrDQvfIrGnZo1wYAG7-20">
          <mxGeometry y="30" width="140" height="30" as="geometry" />
        </mxCell>
        <mxCell id="h9yrDQvfIrGnZo1wYAG7-22" value="CreatedAt: Date" style="text;strokeColor=none;fillColor=none;align=left;verticalAlign=middle;spacingLeft=4;spacingRight=4;overflow=hidden;points=[[0,0.5],[1,0.5]];portConstraint=eastwest;rotatable=0;rounded=0;" vertex="1" parent="h9yrDQvfIrGnZo1wYAG7-20">
          <mxGeometry y="60" width="140" height="30" as="geometry" />
        </mxCell>
        <mxCell id="h9yrDQvfIrGnZo1wYAG7-23" value="Privacy: Integer" style="text;strokeColor=none;fillColor=none;align=left;verticalAlign=middle;spacingLeft=4;spacingRight=4;overflow=hidden;points=[[0,0.5],[1,0.5]];portConstraint=eastwest;rotatable=0;rounded=0;" vertex="1" parent="h9yrDQvfIrGnZo1wYAG7-20">
          <mxGeometry y="90" width="140" height="30" as="geometry" />
        </mxCell>
        <mxCell id="h9yrDQvfIrGnZo1wYAG7-32" value="AmountOfVotes: Integer" style="text;strokeColor=none;fillColor=none;align=left;verticalAlign=middle;spacingLeft=4;spacingRight=4;overflow=hidden;points=[[0,0.5],[1,0.5]];portConstraint=eastwest;rotatable=0;rounded=0;" vertex="1" parent="h9yrDQvfIrGnZo1wYAG7-20">
          <mxGeometry y="120" width="140" height="30" as="geometry" />
        </mxCell>
        <mxCell id="h9yrDQvfIrGnZo1wYAG7-41" value="Content: Text" style="text;strokeColor=none;fillColor=none;align=left;verticalAlign=middle;spacingLeft=4;spacingRight=4;overflow=hidden;points=[[0,0.5],[1,0.5]];portConstraint=eastwest;rotatable=0;rounded=0;" vertex="1" parent="h9yrDQvfIrGnZo1wYAG7-20">
          <mxGeometry y="150" width="140" height="30" as="geometry" />
        </mxCell>
        <mxCell id="h9yrDQvfIrGnZo1wYAG7-31" style="edgeStyle=orthogonalEdgeStyle;rounded=0;orthogonalLoop=1;jettySize=auto;html=1;" edge="1" parent="WIyWlLk6GJQsqaUBKTNV-1" source="h9yrDQvfIrGnZo1wYAG7-25" target="h9yrDQvfIrGnZo1wYAG7-27">
          <mxGeometry relative="1" as="geometry">
            <Array as="points">
              <mxPoint x="-720" y="125" />
              <mxPoint x="-720" y="160" />
            </Array>
          </mxGeometry>
        </mxCell>
        <mxCell id="h9yrDQvfIrGnZo1wYAG7-25" value="Contains" style="rhombus;whiteSpace=wrap;html=1;comic=0;startSize=30;rounded=0;fillColor=#fa6800;fontColor=#000000;strokeColor=#C73500;" vertex="1" parent="WIyWlLk6GJQsqaUBKTNV-1">
          <mxGeometry x="-760" y="85" width="80" height="70" as="geometry" />
        </mxCell>
        <mxCell id="h9yrDQvfIrGnZo1wYAG7-27" value="Media" style="swimlane;fontStyle=0;childLayout=stackLayout;horizontal=1;startSize=30;horizontalStack=0;resizeParent=1;resizeParentMax=0;resizeLast=0;collapsible=1;marginBottom=0;metaEdit=0;treeFolding=0;treeMoving=0;enumerate=0;comic=0;rounded=0;fillColor=#fa6800;fontColor=#000000;strokeColor=#C73500;" vertex="1" parent="WIyWlLk6GJQsqaUBKTNV-1">
          <mxGeometry x="-790" y="200" width="140" height="150" as="geometry">
            <mxRectangle x="80" y="190" width="70" height="30" as="alternateBounds" />
          </mxGeometry>
        </mxCell>
        <mxCell id="h9yrDQvfIrGnZo1wYAG7-28" value="Id: Integer" style="text;strokeColor=none;fillColor=none;align=left;verticalAlign=middle;spacingLeft=4;spacingRight=4;overflow=hidden;points=[[0,0.5],[1,0.5]];portConstraint=eastwest;rotatable=0;rounded=0;" vertex="1" parent="h9yrDQvfIrGnZo1wYAG7-27">
          <mxGeometry y="30" width="140" height="30" as="geometry" />
        </mxCell>
        <mxCell id="h9yrDQvfIrGnZo1wYAG7-29" value="Type: String (Enum)" style="text;strokeColor=none;fillColor=none;align=left;verticalAlign=middle;spacingLeft=4;spacingRight=4;overflow=hidden;points=[[0,0.5],[1,0.5]];portConstraint=eastwest;rotatable=0;rounded=0;" vertex="1" parent="h9yrDQvfIrGnZo1wYAG7-27">
          <mxGeometry y="60" width="140" height="30" as="geometry" />
        </mxCell>
        <mxCell id="h9yrDQvfIrGnZo1wYAG7-30" value="Privacy: String (Enum)" style="text;strokeColor=none;fillColor=none;align=left;verticalAlign=middle;spacingLeft=4;spacingRight=4;overflow=hidden;points=[[0,0.5],[1,0.5]];portConstraint=eastwest;rotatable=0;rounded=0;" vertex="1" parent="h9yrDQvfIrGnZo1wYAG7-27">
          <mxGeometry y="90" width="140" height="30" as="geometry" />
        </mxCell>
        <mxCell id="h9yrDQvfIrGnZo1wYAG7-39" value="Content: String " style="text;strokeColor=none;fillColor=none;align=left;verticalAlign=middle;spacingLeft=4;spacingRight=4;overflow=hidden;points=[[0,0.5],[1,0.5]];portConstraint=eastwest;rotatable=0;rounded=0;" vertex="1" parent="h9yrDQvfIrGnZo1wYAG7-27">
          <mxGeometry y="120" width="140" height="30" as="geometry" />
        </mxCell>
        <mxCell id="h9yrDQvfIrGnZo1wYAG7-95" style="edgeStyle=orthogonalEdgeStyle;rounded=0;orthogonalLoop=1;jettySize=auto;html=1;entryX=0.5;entryY=0;entryDx=0;entryDy=0;" edge="1" parent="WIyWlLk6GJQsqaUBKTNV-1" source="h9yrDQvfIrGnZo1wYAG7-45" target="h9yrDQvfIrGnZo1wYAG7-93">
          <mxGeometry relative="1" as="geometry" />
        </mxCell>
        <mxCell id="h9yrDQvfIrGnZo1wYAG7-45" value="Has" style="rhombus;whiteSpace=wrap;html=1;comic=0;startSize=30;rounded=0;fillColor=#a20025;fontColor=#ffffff;strokeColor=#6F0000;" vertex="1" parent="WIyWlLk6GJQsqaUBKTNV-1">
          <mxGeometry x="-690" y="-50" width="80" height="70" as="geometry" />
        </mxCell>
        <mxCell id="h9yrDQvfIrGnZo1wYAG7-79" value="" style="edgeStyle=orthogonalEdgeStyle;rounded=0;orthogonalLoop=1;jettySize=auto;html=1;entryX=0.5;entryY=0;entryDx=0;entryDy=0;" edge="1" parent="WIyWlLk6GJQsqaUBKTNV-1" source="h9yrDQvfIrGnZo1wYAG7-57" target="h9yrDQvfIrGnZo1wYAG7-71">
          <mxGeometry relative="1" as="geometry" />
        </mxCell>
        <mxCell id="h9yrDQvfIrGnZo1wYAG7-83" style="edgeStyle=orthogonalEdgeStyle;rounded=0;orthogonalLoop=1;jettySize=auto;html=1;" edge="1" parent="WIyWlLk6GJQsqaUBKTNV-1" source="h9yrDQvfIrGnZo1wYAG7-57" target="h9yrDQvfIrGnZo1wYAG7-81">
          <mxGeometry relative="1" as="geometry">
            <Array as="points">
              <mxPoint x="-770" y="465" />
              <mxPoint x="-770" y="650" />
            </Array>
          </mxGeometry>
        </mxCell>
        <mxCell id="h9yrDQvfIrGnZo1wYAG7-57" value="Has" style="rhombus;whiteSpace=wrap;html=1;comic=0;startSize=30;rounded=0;fillColor=#a20025;fontColor=#ffffff;strokeColor=#6F0000;" vertex="1" parent="WIyWlLk6GJQsqaUBKTNV-1">
          <mxGeometry x="-730" y="430" width="80" height="70" as="geometry" />
        </mxCell>
        <mxCell id="h9yrDQvfIrGnZo1wYAG7-81" value="Following" style="swimlane;fontStyle=0;childLayout=stackLayout;horizontal=1;startSize=30;horizontalStack=0;resizeParent=1;resizeParentMax=0;resizeLast=0;collapsible=1;marginBottom=0;metaEdit=0;treeFolding=0;treeMoving=0;enumerate=0;comic=0;rounded=0;fillColor=#f8cecc;strokeColor=#b85450;" vertex="1" parent="WIyWlLk6GJQsqaUBKTNV-1">
          <mxGeometry x="-760" y="620" width="140" height="60" as="geometry">
            <mxRectangle x="-330" y="470" width="70" height="30" as="alternateBounds" />
          </mxGeometry>
        </mxCell>
        <mxCell id="h9yrDQvfIrGnZo1wYAG7-82" value="CreatedAt: Date" style="text;strokeColor=#666666;fillColor=#f5f5f5;align=left;verticalAlign=middle;spacingLeft=4;spacingRight=4;overflow=hidden;points=[[0,0.5],[1,0.5]];portConstraint=eastwest;rotatable=0;rounded=0;fontColor=#333333;" vertex="1" parent="h9yrDQvfIrGnZo1wYAG7-81">
          <mxGeometry y="30" width="140" height="30" as="geometry" />
        </mxCell>
        <mxCell id="oavhkNN7TmO2YfZ4ztie-3" style="edgeStyle=orthogonalEdgeStyle;rounded=0;orthogonalLoop=1;jettySize=auto;html=1;" edge="1" parent="WIyWlLk6GJQsqaUBKTNV-1" source="h9yrDQvfIrGnZo1wYAG7-71" target="pLFZM72usyoBuc8QHLye-0">
          <mxGeometry relative="1" as="geometry" />
        </mxCell>
        <mxCell id="h9yrDQvfIrGnZo1wYAG7-71" value="Follower" style="swimlane;fontStyle=0;childLayout=stackLayout;horizontal=1;startSize=30;horizontalStack=0;resizeParent=1;resizeParentMax=0;resizeLast=0;collapsible=1;marginBottom=0;metaEdit=0;treeFolding=0;treeMoving=0;enumerate=0;comic=0;rounded=0;fillColor=#f8cecc;strokeColor=#b85450;" vertex="1" parent="WIyWlLk6GJQsqaUBKTNV-1">
          <mxGeometry x="-760" y="545" width="140" height="60" as="geometry">
            <mxRectangle x="-330" y="470" width="70" height="30" as="alternateBounds" />
          </mxGeometry>
        </mxCell>
        <mxCell id="h9yrDQvfIrGnZo1wYAG7-72" value="CreatedAt: Date" style="text;align=left;verticalAlign=middle;spacingLeft=4;spacingRight=4;overflow=hidden;points=[[0,0.5],[1,0.5]];portConstraint=eastwest;rotatable=0;rounded=0;fillColor=#f5f5f5;strokeColor=#666666;fontColor=#333333;" vertex="1" parent="h9yrDQvfIrGnZo1wYAG7-71">
          <mxGeometry y="30" width="140" height="30" as="geometry" />
        </mxCell>
        <mxCell id="h9yrDQvfIrGnZo1wYAG7-91" style="edgeStyle=orthogonalEdgeStyle;rounded=0;orthogonalLoop=1;jettySize=auto;html=1;entryX=0.5;entryY=1;entryDx=0;entryDy=0;" edge="1" parent="WIyWlLk6GJQsqaUBKTNV-1" source="h9yrDQvfIrGnZo1wYAG7-89" target="h9yrDQvfIrGnZo1wYAG7-81">
          <mxGeometry relative="1" as="geometry" />
        </mxCell>
        <mxCell id="h9yrDQvfIrGnZo1wYAG7-89" value="FROM" style="rhombus;whiteSpace=wrap;html=1;comic=0;startSize=30;rounded=0;fillColor=#fa6800;fontColor=#000000;strokeColor=#C73500;" vertex="1" parent="WIyWlLk6GJQsqaUBKTNV-1">
          <mxGeometry x="-980" y="545" width="80" height="70" as="geometry" />
        </mxCell>
        <mxCell id="h9yrDQvfIrGnZo1wYAG7-96" style="edgeStyle=orthogonalEdgeStyle;rounded=0;orthogonalLoop=1;jettySize=auto;html=1;entryX=1;entryY=0.5;entryDx=0;entryDy=0;" edge="1" parent="WIyWlLk6GJQsqaUBKTNV-1" source="h9yrDQvfIrGnZo1wYAG7-93" target="h9yrDQvfIrGnZo1wYAG7-14">
          <mxGeometry relative="1" as="geometry" />
        </mxCell>
        <mxCell id="h9yrDQvfIrGnZo1wYAG7-93" value="ProfilePage" style="swimlane;fontStyle=0;childLayout=stackLayout;horizontal=1;startSize=30;horizontalStack=0;resizeParent=1;resizeParentMax=0;resizeLast=0;collapsible=1;marginBottom=0;metaEdit=0;treeFolding=0;treeMoving=0;enumerate=0;comic=0;rounded=0;fillColor=#fa6800;fontColor=#000000;strokeColor=#C73500;" vertex="1" parent="WIyWlLk6GJQsqaUBKTNV-1">
          <mxGeometry x="-870" y="-80" width="140" height="90" as="geometry">
            <mxRectangle x="80" y="190" width="70" height="30" as="alternateBounds" />
          </mxGeometry>
        </mxCell>
        <mxCell id="h9yrDQvfIrGnZo1wYAG7-94" value="Id: Integer" style="text;strokeColor=none;fillColor=none;align=left;verticalAlign=middle;spacingLeft=4;spacingRight=4;overflow=hidden;points=[[0,0.5],[1,0.5]];portConstraint=eastwest;rotatable=0;rounded=0;" vertex="1" parent="h9yrDQvfIrGnZo1wYAG7-93">
          <mxGeometry y="30" width="140" height="30" as="geometry" />
        </mxCell>
        <mxCell id="oavhkNN7TmO2YfZ4ztie-1" value="Bio: String" style="text;strokeColor=none;fillColor=none;align=left;verticalAlign=middle;spacingLeft=4;spacingRight=4;overflow=hidden;points=[[0,0.5],[1,0.5]];portConstraint=eastwest;rotatable=0;rounded=0;" vertex="1" parent="h9yrDQvfIrGnZo1wYAG7-93">
          <mxGeometry y="60" width="140" height="30" as="geometry" />
        </mxCell>
        <mxCell id="h9yrDQvfIrGnZo1wYAG7-159" style="edgeStyle=orthogonalEdgeStyle;rounded=0;orthogonalLoop=1;jettySize=auto;html=1;entryX=0.25;entryY=0;entryDx=0;entryDy=0;" edge="1" parent="WIyWlLk6GJQsqaUBKTNV-1" source="h9yrDQvfIrGnZo1wYAG7-106" target="pLFZM72usyoBuc8QHLye-52">
          <mxGeometry relative="1" as="geometry" />
        </mxCell>
        <mxCell id="h9yrDQvfIrGnZo1wYAG7-106" value="Contains" style="rhombus;whiteSpace=wrap;html=1;comic=0;startSize=30;rounded=0;fillColor=#e3c800;fontColor=#000000;strokeColor=#B09500;" vertex="1" parent="WIyWlLk6GJQsqaUBKTNV-1">
          <mxGeometry x="1390" y="530" width="80" height="70" as="geometry" />
        </mxCell>
        <mxCell id="h9yrDQvfIrGnZo1wYAG7-125" style="edgeStyle=orthogonalEdgeStyle;rounded=0;orthogonalLoop=1;jettySize=auto;html=1;entryX=0.5;entryY=0;entryDx=0;entryDy=0;" edge="1" parent="WIyWlLk6GJQsqaUBKTNV-1" source="h9yrDQvfIrGnZo1wYAG7-109" target="h9yrDQvfIrGnZo1wYAG7-112">
          <mxGeometry relative="1" as="geometry" />
        </mxCell>
        <mxCell id="h9yrDQvfIrGnZo1wYAG7-109" value="Has" style="rhombus;whiteSpace=wrap;html=1;comic=0;startSize=30;rounded=0;fillColor=#a20025;fontColor=#ffffff;strokeColor=#6F0000;" vertex="1" parent="WIyWlLk6GJQsqaUBKTNV-1">
          <mxGeometry x="-439" y="740" width="80" height="80" as="geometry" />
        </mxCell>
        <mxCell id="h9yrDQvfIrGnZo1wYAG7-133" style="edgeStyle=orthogonalEdgeStyle;rounded=0;orthogonalLoop=1;jettySize=auto;html=1;exitX=1;exitY=0;exitDx=0;exitDy=0;entryX=0.5;entryY=0;entryDx=0;entryDy=0;" edge="1" parent="WIyWlLk6GJQsqaUBKTNV-1" source="h9yrDQvfIrGnZo1wYAG7-112" target="5OiQwkXpwTmZOVAmIXW2-16">
          <mxGeometry relative="1" as="geometry" />
        </mxCell>
        <mxCell id="h9yrDQvfIrGnZo1wYAG7-112" value="Calender" style="swimlane;fontStyle=0;childLayout=stackLayout;horizontal=1;startSize=30;horizontalStack=0;resizeParent=1;resizeParentMax=0;resizeLast=0;collapsible=1;marginBottom=0;metaEdit=0;treeFolding=0;treeMoving=0;enumerate=0;comic=0;rounded=0;fillColor=#b1ddf0;strokeColor=#10739e;" vertex="1" parent="WIyWlLk6GJQsqaUBKTNV-1">
          <mxGeometry x="-467" y="920" width="136" height="60" as="geometry">
            <mxRectangle x="80" y="590" width="70" height="30" as="alternateBounds" />
          </mxGeometry>
        </mxCell>
        <mxCell id="h9yrDQvfIrGnZo1wYAG7-113" value="Id: Integer" style="text;strokeColor=none;fillColor=none;align=left;verticalAlign=middle;spacingLeft=4;spacingRight=4;overflow=hidden;points=[[0,0.5],[1,0.5]];portConstraint=eastwest;rotatable=0;rounded=0;" vertex="1" parent="h9yrDQvfIrGnZo1wYAG7-112">
          <mxGeometry y="30" width="136" height="30" as="geometry" />
        </mxCell>
        <mxCell id="h9yrDQvfIrGnZo1wYAG7-141" style="edgeStyle=orthogonalEdgeStyle;rounded=0;orthogonalLoop=1;jettySize=auto;html=1;" edge="1" parent="WIyWlLk6GJQsqaUBKTNV-1" source="5OiQwkXpwTmZOVAmIXW2-232" target="5OiQwkXpwTmZOVAmIXW2-350">
          <mxGeometry relative="1" as="geometry">
            <mxPoint x="-90" y="315" as="targetPoint" />
          </mxGeometry>
        </mxCell>
        <mxCell id="5OiQwkXpwTmZOVAmIXW2-360" style="edgeStyle=elbowEdgeStyle;rounded=0;orthogonalLoop=1;jettySize=auto;html=1;entryX=1;entryY=0.5;entryDx=0;entryDy=0;" edge="1" parent="WIyWlLk6GJQsqaUBKTNV-1" source="5OiQwkXpwTmZOVAmIXW2-298" target="5OiQwkXpwTmZOVAmIXW2-112">
          <mxGeometry relative="1" as="geometry">
            <Array as="points">
              <mxPoint x="270" y="370" />
            </Array>
          </mxGeometry>
        </mxCell>
        <mxCell id="5OiQwkXpwTmZOVAmIXW2-374" value="1" style="text;html=1;align=center;verticalAlign=middle;resizable=0;points=[];autosize=1;strokeColor=none;fillColor=none;" vertex="1" parent="WIyWlLk6GJQsqaUBKTNV-1">
          <mxGeometry x="150" y="150" width="30" height="30" as="geometry" />
        </mxCell>
        <mxCell id="h9yrDQvfIrGnZo1wYAG7-153" style="edgeStyle=orthogonalEdgeStyle;rounded=0;orthogonalLoop=1;jettySize=auto;html=1;" edge="1" parent="WIyWlLk6GJQsqaUBKTNV-1" source="5OiQwkXpwTmZOVAmIXW2-67" target="5OiQwkXpwTmZOVAmIXW2-75">
          <mxGeometry relative="1" as="geometry" />
        </mxCell>
        <mxCell id="h9yrDQvfIrGnZo1wYAG7-173" style="edgeStyle=orthogonalEdgeStyle;rounded=0;orthogonalLoop=1;jettySize=auto;html=1;" edge="1" parent="WIyWlLk6GJQsqaUBKTNV-1" source="h9yrDQvfIrGnZo1wYAG7-164" target="h9yrDQvfIrGnZo1wYAG7-166">
          <mxGeometry relative="1" as="geometry" />
        </mxCell>
        <mxCell id="h9yrDQvfIrGnZo1wYAG7-164" value="Has Total" style="rhombus;whiteSpace=wrap;html=1;comic=0;startSize=30;rounded=0;fillColor=#e3c800;fontColor=#000000;strokeColor=#B09500;" vertex="1" parent="WIyWlLk6GJQsqaUBKTNV-1">
          <mxGeometry x="1186" y="950" width="80" height="70" as="geometry" />
        </mxCell>
        <mxCell id="h9yrDQvfIrGnZo1wYAG7-166" value="AvgMacros" style="swimlane;fontStyle=0;childLayout=stackLayout;horizontal=1;startSize=30;horizontalStack=0;resizeParent=1;resizeParentMax=0;resizeLast=0;collapsible=1;marginBottom=0;metaEdit=0;treeFolding=0;treeMoving=0;enumerate=0;comic=0;rounded=0;fillColor=#e3c800;fontColor=#000000;strokeColor=#B09500;" vertex="1" parent="WIyWlLk6GJQsqaUBKTNV-1">
          <mxGeometry x="1156" y="1060" width="140" height="120" as="geometry">
            <mxRectangle x="80" y="190" width="70" height="30" as="alternateBounds" />
          </mxGeometry>
        </mxCell>
        <mxCell id="h9yrDQvfIrGnZo1wYAG7-172" value="TFat: Double" style="text;strokeColor=none;fillColor=none;align=left;verticalAlign=middle;spacingLeft=4;spacingRight=4;overflow=hidden;points=[[0,0.5],[1,0.5]];portConstraint=eastwest;rotatable=0;rounded=0;" vertex="1" parent="h9yrDQvfIrGnZo1wYAG7-166">
          <mxGeometry y="30" width="140" height="30" as="geometry" />
        </mxCell>
        <mxCell id="h9yrDQvfIrGnZo1wYAG7-175" value="TCarbs: Double" style="text;strokeColor=none;fillColor=none;align=left;verticalAlign=middle;spacingLeft=4;spacingRight=4;overflow=hidden;points=[[0,0.5],[1,0.5]];portConstraint=eastwest;rotatable=0;rounded=0;" vertex="1" parent="h9yrDQvfIrGnZo1wYAG7-166">
          <mxGeometry y="60" width="140" height="30" as="geometry" />
        </mxCell>
        <mxCell id="h9yrDQvfIrGnZo1wYAG7-176" value="TProtein: Double" style="text;strokeColor=none;fillColor=none;align=left;verticalAlign=middle;spacingLeft=4;spacingRight=4;overflow=hidden;points=[[0,0.5],[1,0.5]];portConstraint=eastwest;rotatable=0;rounded=0;" vertex="1" parent="h9yrDQvfIrGnZo1wYAG7-166">
          <mxGeometry y="90" width="140" height="30" as="geometry" />
        </mxCell>
        <mxCell id="h9yrDQvfIrGnZo1wYAG7-206" value="" style="edgeStyle=orthogonalEdgeStyle;rounded=0;orthogonalLoop=1;jettySize=auto;html=1;" edge="1" parent="WIyWlLk6GJQsqaUBKTNV-1" source="h9yrDQvfIrGnZo1wYAG7-178" target="h9yrDQvfIrGnZo1wYAG7-192">
          <mxGeometry relative="1" as="geometry" />
        </mxCell>
        <mxCell id="h9yrDQvfIrGnZo1wYAG7-178" value="MealPrep" style="swimlane;fontStyle=0;childLayout=stackLayout;horizontal=1;startSize=30;horizontalStack=0;resizeParent=1;resizeParentMax=0;resizeLast=0;collapsible=1;marginBottom=0;metaEdit=0;treeFolding=0;treeMoving=0;enumerate=0;comic=0;rounded=0;fillColor=#e3c800;fontColor=#000000;strokeColor=#B09500;" vertex="1" parent="WIyWlLk6GJQsqaUBKTNV-1">
          <mxGeometry x="1542" y="1060" width="144" height="90" as="geometry">
            <mxRectangle x="80" y="190" width="70" height="30" as="alternateBounds" />
          </mxGeometry>
        </mxCell>
        <mxCell id="h9yrDQvfIrGnZo1wYAG7-183" value="MealPrepId: Integer" style="text;strokeColor=none;fillColor=none;align=left;verticalAlign=middle;spacingLeft=4;spacingRight=4;overflow=hidden;points=[[0,0.5],[1,0.5]];portConstraint=eastwest;rotatable=0;rounded=0;" vertex="1" parent="h9yrDQvfIrGnZo1wYAG7-178">
          <mxGeometry y="30" width="144" height="30" as="geometry" />
        </mxCell>
        <mxCell id="h9yrDQvfIrGnZo1wYAG7-191" value="StepsAmount: integer" style="text;strokeColor=none;fillColor=none;align=left;verticalAlign=middle;spacingLeft=4;spacingRight=4;overflow=hidden;points=[[0,0.5],[1,0.5]];portConstraint=eastwest;rotatable=0;rounded=0;" vertex="1" parent="h9yrDQvfIrGnZo1wYAG7-178">
          <mxGeometry y="60" width="144" height="30" as="geometry" />
        </mxCell>
        <mxCell id="h9yrDQvfIrGnZo1wYAG7-190" style="edgeStyle=orthogonalEdgeStyle;rounded=0;orthogonalLoop=1;jettySize=auto;html=1;entryX=0.5;entryY=0;entryDx=0;entryDy=0;" edge="1" parent="WIyWlLk6GJQsqaUBKTNV-1" source="h9yrDQvfIrGnZo1wYAG7-187" target="h9yrDQvfIrGnZo1wYAG7-178">
          <mxGeometry relative="1" as="geometry" />
        </mxCell>
        <mxCell id="h9yrDQvfIrGnZo1wYAG7-187" value="Has" style="rhombus;whiteSpace=wrap;html=1;comic=0;startSize=30;rounded=0;fillColor=#e3c800;fontColor=#000000;strokeColor=#B09500;" vertex="1" parent="WIyWlLk6GJQsqaUBKTNV-1">
          <mxGeometry x="1574" y="940" width="80" height="70" as="geometry" />
        </mxCell>
        <mxCell id="h9yrDQvfIrGnZo1wYAG7-205" style="edgeStyle=orthogonalEdgeStyle;rounded=0;orthogonalLoop=1;jettySize=auto;html=1;" edge="1" parent="WIyWlLk6GJQsqaUBKTNV-1" source="h9yrDQvfIrGnZo1wYAG7-192" target="h9yrDQvfIrGnZo1wYAG7-194">
          <mxGeometry relative="1" as="geometry" />
        </mxCell>
        <mxCell id="h9yrDQvfIrGnZo1wYAG7-192" value="Contains" style="rhombus;whiteSpace=wrap;html=1;comic=0;startSize=30;rounded=0;fillColor=#e3c800;fontColor=#000000;strokeColor=#B09500;" vertex="1" parent="WIyWlLk6GJQsqaUBKTNV-1">
          <mxGeometry x="1574" y="1210" width="80" height="70" as="geometry" />
        </mxCell>
        <mxCell id="h9yrDQvfIrGnZo1wYAG7-194" value="PrepStep" style="swimlane;fontStyle=0;childLayout=stackLayout;horizontal=1;startSize=30;horizontalStack=0;resizeParent=1;resizeParentMax=0;resizeLast=0;collapsible=1;marginBottom=0;metaEdit=0;treeFolding=0;treeMoving=0;enumerate=0;comic=0;rounded=0;fillColor=#e3c800;fontColor=#000000;strokeColor=#B09500;" vertex="1" parent="WIyWlLk6GJQsqaUBKTNV-1">
          <mxGeometry x="1542" y="1330" width="144" height="180" as="geometry">
            <mxRectangle x="80" y="190" width="70" height="30" as="alternateBounds" />
          </mxGeometry>
        </mxCell>
        <mxCell id="h9yrDQvfIrGnZo1wYAG7-195" value="StepNum: Integer" style="text;strokeColor=none;fillColor=none;align=left;verticalAlign=middle;spacingLeft=4;spacingRight=4;overflow=hidden;points=[[0,0.5],[1,0.5]];portConstraint=eastwest;rotatable=0;rounded=0;" vertex="1" parent="h9yrDQvfIrGnZo1wYAG7-194">
          <mxGeometry y="30" width="144" height="30" as="geometry" />
        </mxCell>
        <mxCell id="h9yrDQvfIrGnZo1wYAG7-199" value="IsDone: Boolean" style="text;strokeColor=none;fillColor=none;align=left;verticalAlign=middle;spacingLeft=4;spacingRight=4;overflow=hidden;points=[[0,0.5],[1,0.5]];portConstraint=eastwest;rotatable=0;rounded=0;" vertex="1" parent="h9yrDQvfIrGnZo1wYAG7-194">
          <mxGeometry y="60" width="144" height="30" as="geometry" />
        </mxCell>
        <mxCell id="h9yrDQvfIrGnZo1wYAG7-200" value="MediaType: String (Enum)" style="text;strokeColor=none;fillColor=none;align=left;verticalAlign=middle;spacingLeft=4;spacingRight=4;overflow=hidden;points=[[0,0.5],[1,0.5]];portConstraint=eastwest;rotatable=0;rounded=0;" vertex="1" parent="h9yrDQvfIrGnZo1wYAG7-194">
          <mxGeometry y="90" width="144" height="30" as="geometry" />
        </mxCell>
        <mxCell id="h9yrDQvfIrGnZo1wYAG7-201" value="MediaLink: String " style="text;strokeColor=none;fillColor=none;align=left;verticalAlign=middle;spacingLeft=4;spacingRight=4;overflow=hidden;points=[[0,0.5],[1,0.5]];portConstraint=eastwest;rotatable=0;rounded=0;" vertex="1" parent="h9yrDQvfIrGnZo1wYAG7-194">
          <mxGeometry y="120" width="144" height="30" as="geometry" />
        </mxCell>
        <mxCell id="h9yrDQvfIrGnZo1wYAG7-202" value="Text: String" style="text;strokeColor=none;fillColor=none;align=left;verticalAlign=middle;spacingLeft=4;spacingRight=4;overflow=hidden;points=[[0,0.5],[1,0.5]];portConstraint=eastwest;rotatable=0;rounded=0;" vertex="1" parent="h9yrDQvfIrGnZo1wYAG7-194">
          <mxGeometry y="150" width="144" height="30" as="geometry" />
        </mxCell>
        <mxCell id="h9yrDQvfIrGnZo1wYAG7-209" style="edgeStyle=orthogonalEdgeStyle;rounded=0;orthogonalLoop=1;jettySize=auto;html=1;entryX=0.5;entryY=0;entryDx=0;entryDy=0;" edge="1" parent="WIyWlLk6GJQsqaUBKTNV-1" source="h9yrDQvfIrGnZo1wYAG7-207" target="5OiQwkXpwTmZOVAmIXW2-289">
          <mxGeometry relative="1" as="geometry" />
        </mxCell>
        <mxCell id="h9yrDQvfIrGnZo1wYAG7-207" value="Unlocks" style="rhombus;whiteSpace=wrap;html=1;fontStyle=0;startSize=30;comic=0;rounded=0;fillColor=#76608a;fontColor=#ffffff;strokeColor=#432D57;" vertex="1" parent="WIyWlLk6GJQsqaUBKTNV-1">
          <mxGeometry x="200" y="-300" width="80" height="80" as="geometry" />
        </mxCell>
        <mxCell id="h9yrDQvfIrGnZo1wYAG7-214" style="edgeStyle=orthogonalEdgeStyle;rounded=0;orthogonalLoop=1;jettySize=auto;html=1;entryX=0.5;entryY=0;entryDx=0;entryDy=0;" edge="1" parent="WIyWlLk6GJQsqaUBKTNV-1" source="h9yrDQvfIrGnZo1wYAG7-212" target="h9yrDQvfIrGnZo1wYAG7-215">
          <mxGeometry relative="1" as="geometry">
            <mxPoint x="840" y="-365" as="targetPoint" />
          </mxGeometry>
        </mxCell>
        <mxCell id="h9yrDQvfIrGnZo1wYAG7-212" value="Unlocks" style="rhombus;whiteSpace=wrap;html=1;fontStyle=0;startSize=30;comic=0;rounded=0;fillColor=#76608a;fontColor=#ffffff;strokeColor=#432D57;" vertex="1" parent="WIyWlLk6GJQsqaUBKTNV-1">
          <mxGeometry x="670" y="-405" width="80" height="80" as="geometry" />
        </mxCell>
        <mxCell id="h9yrDQvfIrGnZo1wYAG7-215" value="Privilage" style="swimlane;fontStyle=0;childLayout=stackLayout;horizontal=1;startSize=30;horizontalStack=0;resizeParent=1;resizeParentMax=0;resizeLast=0;collapsible=1;marginBottom=0;metaEdit=0;treeFolding=0;treeMoving=0;enumerate=0;comic=0;rounded=0;fillColor=#76608a;fontColor=#ffffff;strokeColor=#432D57;" vertex="1" parent="WIyWlLk6GJQsqaUBKTNV-1">
          <mxGeometry x="900" y="-490" width="140" height="210" as="geometry">
            <mxRectangle x="80" y="190" width="70" height="30" as="alternateBounds" />
          </mxGeometry>
        </mxCell>
        <mxCell id="h9yrDQvfIrGnZo1wYAG7-216" value="Id: Integer" style="text;strokeColor=none;fillColor=none;align=left;verticalAlign=middle;spacingLeft=4;spacingRight=4;overflow=hidden;points=[[0,0.5],[1,0.5]];portConstraint=eastwest;rotatable=0;rounded=0;" vertex="1" parent="h9yrDQvfIrGnZo1wYAG7-215">
          <mxGeometry y="30" width="140" height="30" as="geometry" />
        </mxCell>
        <mxCell id="h9yrDQvfIrGnZo1wYAG7-217" value="Name: String" style="text;strokeColor=none;fillColor=none;align=left;verticalAlign=middle;spacingLeft=4;spacingRight=4;overflow=hidden;points=[[0,0.5],[1,0.5]];portConstraint=eastwest;rotatable=0;rounded=0;" vertex="1" parent="h9yrDQvfIrGnZo1wYAG7-215">
          <mxGeometry y="60" width="140" height="30" as="geometry" />
        </mxCell>
        <mxCell id="h9yrDQvfIrGnZo1wYAG7-218" value="StartDate: Date" style="text;strokeColor=none;fillColor=none;align=left;verticalAlign=middle;spacingLeft=4;spacingRight=4;overflow=hidden;points=[[0,0.5],[1,0.5]];portConstraint=eastwest;rotatable=0;rounded=0;" vertex="1" parent="h9yrDQvfIrGnZo1wYAG7-215">
          <mxGeometry y="90" width="140" height="30" as="geometry" />
        </mxCell>
        <mxCell id="h9yrDQvfIrGnZo1wYAG7-219" value="EndDate: Date" style="text;strokeColor=none;fillColor=none;align=left;verticalAlign=middle;spacingLeft=4;spacingRight=4;overflow=hidden;points=[[0,0.5],[1,0.5]];portConstraint=eastwest;rotatable=0;rounded=0;" vertex="1" parent="h9yrDQvfIrGnZo1wYAG7-215">
          <mxGeometry y="120" width="140" height="30" as="geometry" />
        </mxCell>
        <mxCell id="h9yrDQvfIrGnZo1wYAG7-220" value="Points: Integer" style="text;strokeColor=none;fillColor=none;align=left;verticalAlign=middle;spacingLeft=4;spacingRight=4;overflow=hidden;points=[[0,0.5],[1,0.5]];portConstraint=eastwest;rotatable=0;rounded=0;" vertex="1" parent="h9yrDQvfIrGnZo1wYAG7-215">
          <mxGeometry y="150" width="140" height="30" as="geometry" />
        </mxCell>
        <mxCell id="h9yrDQvfIrGnZo1wYAG7-221" value="Multiplier: Integer?" style="text;strokeColor=none;fillColor=none;align=left;verticalAlign=middle;spacingLeft=4;spacingRight=4;overflow=hidden;points=[[0,0.5],[1,0.5]];portConstraint=eastwest;rotatable=0;rounded=0;" vertex="1" parent="h9yrDQvfIrGnZo1wYAG7-215">
          <mxGeometry y="180" width="140" height="30" as="geometry" />
        </mxCell>
        <mxCell id="oavhkNN7TmO2YfZ4ztie-4" style="edgeStyle=orthogonalEdgeStyle;rounded=0;orthogonalLoop=1;jettySize=auto;html=1;" edge="1" parent="WIyWlLk6GJQsqaUBKTNV-1" source="h9yrDQvfIrGnZo1wYAG7-82" target="pLFZM72usyoBuc8QHLye-0">
          <mxGeometry relative="1" as="geometry" />
        </mxCell>
      </root>
    </mxGraphModel>
  </diagram>
</mxfile>
